  0
SECTION
  2
HEADER
  9
$ACADVER
  1
AC1003
  9
$INSBASE
 10
0.0
 20
0.0
  9
$EXTMIN
 10
-6
 20
-6
  9
$EXTMAX
 10
6
 20
6
  9
$LIMMIN
 10
0.0
 20
0.0
  9
$LIMMAX
 10
12.0
 20
9.0
  9
$VIEWCTR
 10
7.378144
 20
4.5
  9
$VIEWSIZE
 40
9.0
  9
$SNAPMODE
 70
     0
  9
$SNAPUNIT
 10
1.0
 20
1.0
  9
$SNAPBASE
 10
0.0
 20
0.0
  9
$SNAPANG
 50
0.0
  9
$SNAPSTYLE
 70
     0
  9
$SNAPISOPAIR
 70
     0
  9
$GRIDMODE
 70
     0
  9
$GRIDUNIT
 10
0.0
 20
0.0
  9
$ORTHOMODE
 70
     0
  9
$REGENMODE
 70
     1
  9
$FILLMODE
 70
     1
  9
$QTEXTMODE
 70
     0
  9
$DRAGMODE
 70
     2
  9
$LTSCALE
 40
1.0
  9
$OSMODE
 70
     0
  9
$ATTMODE
 70
     1
  9
$TEXTSIZE
 40
0.2
  9
$TRACEWID
 40
0.05
  9
$TEXTSTYLE
  7
STANDARD
  9
$CLAYER
  8
0
  9
$CELTYPE
  6
BYLAYER
  9
$CECOLOR
 62
   256
  9
$DIMSCALE
 40
1.0
  9
$DIMASZ
 40
0.18
  9
$DIMEXO
 40
0.0625
  9
$DIMDLI
 40
0.38
  9
$DIMRND
 40
0.0
  9
$DIMDLE
 40
0.0
  9
$DIMEXE
 40
0.18
  9
$DIMTP
 40
0.0
  9
$DIMTM
 40
0.0
  9
$DIMTXT
 40
0.18
  9
$DIMCEN
 40
0.09
  9
$DIMTSZ
 40
0.0
  9
$DIMTOL
 70
     0
  9
$DIMLIM
 70
     0
  9
$DIMTIH
 70
     1
  9
$DIMTOH
 70
     1
  9
$DIMSE1
 70
     0
  9
$DIMSE2
 70
     0
  9
$DIMTAD
 70
     0
  9
$DIMZIN
 70
     0
  9
$DIMBLK
  1

  9
$DIMASO
 70
     1
  9
$DIMSHO
 70
     0
  9
$DIMPOST
  1

  9
$DIMAPOST
  1

  9
$DIMALT
 70
     0
  9
$DIMALTD
 70
     2
  9
$DIMALTF
 40
25.4
  9
$DIMLFAC
 40
1.0
  9
$LUNITS
 70
     2
  9
$LUPREC
 70
     4
  9
$AXISMODE
 70
     0
  9
$AXISUNIT
 10
0.0
 20
0.0
  9
$SKETCHINC
 40
0.1
  9
$FILLETRAD
 40
0.0
  9
$AUNITS
 70
     0
  9
$AUPREC
 70
     0
  9
$MENU
  1
ACAD
  9
$ELEVATION
 40
0.0
  9
$THICKNESS
 40
0.0
  9
$VIEWDIR
 10
0.0
 20
0.0
 30
1.0
  9
$LIMCHECK
 70
     0
  9
$BLIPMODE
 70
     1
  9
$CHAMFERA
 40
0.0
  9
$CHAMFERB
 40
0.0
  9
$FASTZOOM
 70
     1
  9
$SKPOLY
 70
     0
  9
$TDCREATE
 40
2447732.6512363921
  9
$TDUPDATE
 40
2447732.6512363921
  9
$TDINDWG
 40
0.0000000000
  9
$TDUSRTIMER
 40
0.0000000000
  9
$USRTIMER
 70
     1
  9
$ANGBASE
 50
0.0
  9
$ANGDIR
 70
     0
  9
$PDMODE
 70
     0
  9
$PDSIZE
 40
0.0
  9
$PLINEWID
 40
0.0
  9
$COORDS
 70
     0
  9
$USERI1
 70
     0
  9
$USERI2
 70
     0
  9
$USERI3
 70
     0
  9
$USERI4
 70
     0
  9
$USERI5
 70
     0
  9
$USERR1
 40
0.0
  9
$USERR2
 40
0.0
  9
$USERR3
 40
0.0
  9
$USERR4
 40
0.0
  9
$USERR5
 40
0.0
  0
ENDSEC
  0
SECTION
  2
TABLES
  0
TABLE
  2
LTYPE
  70
     2
  0
LTYPE
  2
CONTINUOUS
 70
    64
  3
Solid line
 72
    65
 73
     0
 40
0.0
  0
ENDTAB
  0
TABLE
  2
LAYER
 70
     9
  0
LAYER
  2
0
 70
     0
 62
     7
  6
CONTINUOUS
  0
LAYER
  2
1
 70
     0
 62
     1
  6
CONTINUOUS
  0
LAYER
  2
2
 70
     0
 62
     2
  6
CONTINUOUS
  0
LAYER
  2
3
 70
     0
 62
     3
  6
CONTINUOUS
  0
LAYER
  2
4
 70
     0
 62
     4
  6
CONTINUOUS
  0
LAYER
  2
5
 70
     0
 62
     5
  6
CONTINUOUS
  0
LAYER
  2
6
 70
     0
 62
     6
  6
CONTINUOUS
  0
LAYER
  2
7
 70
     0
 62
     7
  6
CONTINUOUS
  0
LAYER
  2
8
 70
     0
 62
     7
  6
CONTINUOUS
  0
ENDTAB
  0
TABLE
  2
STYLE
 70
     5
  0
STYLE
  2
STANDARD
 70
     0
 40
0.0
 41
1.0
 50
0.0
 71
     0
 42
0.2
  3
TXT
  4

  0
STYLE
  2
GREEK
 70
     0
 40
0.0
 41
1.0
 50
0.0
 71
     0
 42
0.2
  3
GREEKC
  4

  0
STYLE
  2
ITALICC
 70
     0
 40
0.0
 41
1.0
 50
0.0
 71
     0
 42
0.2
  3
ITALICC
  4

  0
STYLE
  2
MONOTXT
 70
     0
 40
0.0
 41
1.0
 50
0.0
 71
     0
 42
0.2
  3
MONOTXT
  4

  0
STYLE
  2
GOTHICE
 70
     0
 40
0.0
 41
1.0
 50
0.0
 71
     0
 42
0.2
  3
GOTHICE
  4

  0
ENDTAB
  0
TABLE
  2
VIEW
 70
     0
  0
ENDTAB
  0
ENDSEC
  0
SECTION
  2
BLOCKS
  0
ENDSEC
  0
SECTION
  2
ENTITIES
  0
POLYLINE
  8
7
  6
CONTINUOUS
 66
  1
  0
VERTEX
  8
7
  10
0.249
  20
3.837
  0
VERTEX
  8
7
  10
2.499
  20
3.837
  0
VERTEX
  8
7
  10
2.548
  20
3.828
  0
VERTEX
  8
7
  10
2.588
  20
3.802
  0
VERTEX
  8
7
  10
2.615
  20
3.764
  0
VERTEX
  8
7
  10
2.624
  20
3.718
  0
VERTEX
  8
7
  10
2.624
  20
0.281
  0
VERTEX
  8
7
  10
2.615
  20
0.235
  0
VERTEX
  8
7
  10
2.588
  20
0.197
  0
VERTEX
  8
7
  10
2.548
  20
0.171
  0
VERTEX
  8
7
  10
2.499
  20
0.162
  0
VERTEX
  8
7
  10
0.249
  20
0.162
  0
VERTEX
  8
7
  10
0.201
  20
0.171
  0
VERTEX
  8
7
  10
0.161
  20
0.197
  0
VERTEX
  8
7
  10
0.134
  20
0.235
  0
VERTEX
  8
7
  10
0.124
  20
0.281
  0
VERTEX
  8
7
  10
0.124
  20
3.718
  0
VERTEX
  8
7
  10
0.134
  20
3.764
  0
VERTEX
  8
7
  10
0.161
  20
3.802
  0
VERTEX
  8
7
  10
0.201
  20
3.828
  0
VERTEX
  8
7
  10
0.249
  20
3.837
  0
SEQEND
  0
POLYLINE
  8
7
  6
CONTINUOUS
 66
  1
  0
VERTEX
  8
7
  10
-2.858
  20
4.382
  0
VERTEX
  8
7
  10
2.733
  20
4.382
  0
VERTEX
  8
7
  10
2.774
  20
4.378
  0
VERTEX
  8
7
  10
2.812
  20
4.367
  0
VERTEX
  8
7
  10
2.847
  20
4.348
  0
VERTEX
  8
7
  10
2.877
  20
4.324
  0
VERTEX
  8
7
  10
2.902
  20
4.294
  0
VERTEX
  8
7
  10
2.921
  20
4.260
  0
VERTEX
  8
7
  10
2.933
  20
4.222
  0
VERTEX
  8
7
  10
2.937
  20
4.182
  0
VERTEX
  8
7
  10
2.937
  20
-2.542
  0
VERTEX
  8
7
  10
2.933
  20
-2.582
  0
VERTEX
  8
7
  10
2.921
  20
-2.619
  0
VERTEX
  8
7
  10
2.902
  20
-2.653
  0
VERTEX
  8
7
  10
2.877
  20
-2.683
  0
VERTEX
  8
7
  10
2.847
  20
-2.707
  0
VERTEX
  8
7
  10
2.812
  20
-2.726
  0
VERTEX
  8
7
  10
2.774
  20
-2.738
  0
VERTEX
  8
7
  10
2.733
  20
-2.742
  0
VERTEX
  8
7
  10
-2.858
  20
-2.742
  0
VERTEX
  8
7
  10
-2.899
  20
-2.738
  0
VERTEX
  8
7
  10
-2.937
  20
-2.726
  0
VERTEX
  8
7
  10
-2.972
  20
-2.707
  0
VERTEX
  8
7
  10
-3.002
  20
-2.683
  0
VERTEX
  8
7
  10
-3.027
  20
-2.653
  0
VERTEX
  8
7
  10
-3.046
  20
-2.619
  0
VERTEX
  8
7
  10
-3.058
  20
-2.582
  0
VERTEX
  8
7
  10
-3.062
  20
-2.542
  0
VERTEX
  8
7
  10
-3.062
  20
4.182
  0
VERTEX
  8
7
  10
-3.058
  20
4.222
  0
VERTEX
  8
7
  10
-3.046
  20
4.260
  0
VERTEX
  8
7
  10
-3.027
  20
4.294
  0
VERTEX
  8
7
  10
-3.002
  20
4.324
  0
VERTEX
  8
7
  10
-2.972
  20
4.348
  0
VERTEX
  8
7
  10
-2.937
  20
4.367
  0
VERTEX
  8
7
  10
-2.899
  20
4.378
  0
VERTEX
  8
7
  10
-2.858
  20
4.382
  0
SEQEND
  0
POLYLINE
  8
7
  6
CONTINUOUS
 66
  1
  0
VERTEX
  8
7
  10
-0.003
  20
3.720
  0
VERTEX
  8
7
  10
-0.027
  20
3.725
  0
VERTEX
  8
7
  10
-0.047
  20
3.739
  0
VERTEX
  8
7
  10
-0.061
  20
3.758
  0
VERTEX
  8
7
  10
-0.065
  20
3.783
  0
VERTEX
  8
7
  10
-0.061
  20
3.807
  0
VERTEX
  8
7
  10
-0.047
  20
3.827
  0
VERTEX
  8
7
  10
-0.027
  20
3.840
  0
VERTEX
  8
7
  10
-0.003
  20
3.845
  0
VERTEX
  8
7
  10
0.020
  20
3.840
  0
VERTEX
  8
7
  10
0.040
  20
3.827
  0
VERTEX
  8
7
  10
0.054
  20
3.807
  0
VERTEX
  8
7
  10
0.059
  20
3.783
  0
VERTEX
  8
7
  10
0.054
  20
3.758
  0
VERTEX
  8
7
  10
0.040
  20
3.739
  0
VERTEX
  8
7
  10
0.020
  20
3.725
  0
VERTEX
  8
7
  10
-0.003
  20
3.720
  0
SEQEND
  0
POLYLINE
  8
7
  6
CONTINUOUS
 66
  1
  0
VERTEX
  8
7
  10
-0.003
  20
0.140
  0
VERTEX
  8
7
  10
-0.027
  20
0.145
  0
VERTEX
  8
7
  10
-0.047
  20
0.158
  0
VERTEX
  8
7
  10
-0.061
  20
0.178
  0
VERTEX
  8
7
  10
-0.065
  20
0.202
  0
VERTEX
  8
7
  10
-0.061
  20
0.227
  0
VERTEX
  8
7
  10
-0.047
  20
0.246
  0
VERTEX
  8
7
  10
-0.027
  20
0.260
  0
VERTEX
  8
7
  10
-0.003
  20
0.265
  0
VERTEX
  8
7
  10
0.020
  20
0.260
  0
VERTEX
  8
7
  10
0.040
  20
0.246
  0
VERTEX
  8
7
  10
0.054
  20
0.227
  0
VERTEX
  8
7
  10
0.059
  20
0.202
  0
VERTEX
  8
7
  10
0.054
  20
0.178
  0
VERTEX
  8
7
  10
0.040
  20
0.158
  0
VERTEX
  8
7
  10
0.020
  20
0.145
  0
VERTEX
  8
7
  10
-0.003
  20
0.140
  0
SEQEND
  0
POLYLINE
  8
7
  6
CONTINUOUS
 66
  1
  0
VERTEX
  8
7
  10
-2.903
  20
4.120
  0
VERTEX
  8
7
  10
-2.927
  20
4.125
  0
VERTEX
  8
7
  10
-2.947
  20
4.139
  0
VERTEX
  8
7
  10
-2.961
  20
4.158
  0
VERTEX
  8
7
  10
-2.965
  20
4.183
  0
VERTEX
  8
7
  10
-2.961
  20
4.207
  0
VERTEX
  8
7
  10
-2.947
  20
4.227
  0
VERTEX
  8
7
  10
-2.927
  20
4.240
  0
VERTEX
  8
7
  10
-2.903
  20
4.245
  0
VERTEX
  8
7
  10
-2.879
  20
4.240
  0
VERTEX
  8
7
  10
-2.859
  20
4.227
  0
VERTEX
  8
7
  10
-2.845
  20
4.207
  0
VERTEX
  8
7
  10
-2.840
  20
4.183
  0
VERTEX
  8
7
  10
-2.845
  20
4.158
  0
VERTEX
  8
7
  10
-2.859
  20
4.139
  0
VERTEX
  8
7
  10
-2.879
  20
4.125
  0
VERTEX
  8
7
  10
-2.903
  20
4.120
  0
SEQEND
  0
POLYLINE
  8
7
  6
CONTINUOUS
 66
  1
  0
VERTEX
  8
7
  10
2.796
  20
4.120
  0
VERTEX
  8
7
  10
2.772
  20
4.125
  0
VERTEX
  8
7
  10
2.752
  20
4.139
  0
VERTEX
  8
7
  10
2.738
  20
4.158
  0
VERTEX
  8
7
  10
2.734
  20
4.183
  0
VERTEX
  8
7
  10
2.738
  20
4.207
  0
VERTEX
  8
7
  10
2.752
  20
4.227
  0
VERTEX
  8
7
  10
2.772
  20
4.240
  0
VERTEX
  8
7
  10
2.796
  20
4.245
  0
VERTEX
  8
7
  10
2.820
  20
4.240
  0
VERTEX
  8
7
  10
2.840
  20
4.227
  0
VERTEX
  8
7
  10
2.854
  20
4.207
  0
VERTEX
  8
7
  10
2.859
  20
4.183
  0
VERTEX
  8
7
  10
2.854
  20
4.158
  0
VERTEX
  8
7
  10
2.840
  20
4.139
  0
VERTEX
  8
7
  10
2.820
  20
4.125
  0
VERTEX
  8
7
  10
2.796
  20
4.120
  0
SEQEND
  0
POLYLINE
  8
7
  6
CONTINUOUS
 66
  1
  0
VERTEX
  8
7
  10
2.796
  20
-2.679
  0
VERTEX
  8
7
  10
2.772
  20
-2.674
  0
VERTEX
  8
7
  10
2.752
  20
-2.660
  0
VERTEX
  8
7
  10
2.738
  20
-2.641
  0
VERTEX
  8
7
  10
2.734
  20
-2.616
  0
VERTEX
  8
7
  10
2.738
  20
-2.592
  0
VERTEX
  8
7
  10
2.752
  20
-2.572
  0
VERTEX
  8
7
  10
2.772
  20
-2.559
  0
VERTEX
  8
7
  10
2.796
  20
-2.554
  0
VERTEX
  8
7
  10
2.820
  20
-2.559
  0
VERTEX
  8
7
  10
2.840
  20
-2.572
  0
VERTEX
  8
7
  10
2.854
  20
-2.592
  0
VERTEX
  8
7
  10
2.859
  20
-2.616
  0
VERTEX
  8
7
  10
2.854
  20
-2.641
  0
VERTEX
  8
7
  10
2.840
  20
-2.660
  0
VERTEX
  8
7
  10
2.820
  20
-2.674
  0
VERTEX
  8
7
  10
2.796
  20
-2.679
  0
SEQEND
  0
POLYLINE
  8
7
  6
CONTINUOUS
 66
  1
  0
VERTEX
  8
7
  10
-2.903
  20
-2.679
  0
VERTEX
  8
7
  10
-2.927
  20
-2.674
  0
VERTEX
  8
7
  10
-2.947
  20
-2.660
  0
VERTEX
  8
7
  10
-2.961
  20
-2.641
  0
VERTEX
  8
7
  10
-2.965
  20
-2.616
  0
VERTEX
  8
7
  10
-2.961
  20
-2.592
  0
VERTEX
  8
7
  10
-2.947
  20
-2.572
  0
VERTEX
  8
7
  10
-2.927
  20
-2.559
  0
VERTEX
  8
7
  10
-2.903
  20
-2.554
  0
VERTEX
  8
7
  10
-2.879
  20
-2.559
  0
VERTEX
  8
7
  10
-2.859
  20
-2.572
  0
VERTEX
  8
7
  10
-2.845
  20
-2.592
  0
VERTEX
  8
7
  10
-2.840
  20
-2.616
  0
VERTEX
  8
7
  10
-2.845
  20
-2.641
  0
VERTEX
  8
7
  10
-2.859
  20
-2.660
  0
VERTEX
  8
7
  10
-2.879
  20
-2.674
  0
VERTEX
  8
7
  10
-2.903
  20
-2.679
  0
SEQEND
  0
POLYLINE
  8
7
  6
CONTINUOUS
 66
  1
  0
VERTEX
  8
7
  10
-2.550
  20
3.837
  0
VERTEX
  8
7
  10
-0.300
  20
3.837
  0
VERTEX
  8
7
  10
-0.251
  20
3.828
  0
VERTEX
  8
7
  10
-0.211
  20
3.802
  0
VERTEX
  8
7
  10
-0.184
  20
3.764
  0
VERTEX
  8
7
  10
-0.175
  20
3.718
  0
VERTEX
  8
7
  10
-0.175
  20
0.281
  0
VERTEX
  8
7
  10
-0.184
  20
0.235
  0
VERTEX
  8
7
  10
-0.211
  20
0.197
  0
VERTEX
  8
7
  10
-0.251
  20
0.171
  0
VERTEX
  8
7
  10
-0.300
  20
0.162
  0
VERTEX
  8
7
  10
-2.550
  20
0.162
  0
VERTEX
  8
7
  10
-2.598
  20
0.171
  0
VERTEX
  8
7
  10
-2.638
  20
0.197
  0
VERTEX
  8
7
  10
-2.665
  20
0.235
  0
VERTEX
  8
7
  10
-2.675
  20
0.281
  0
VERTEX
  8
7
  10
-2.675
  20
3.718
  0
VERTEX
  8
7
  10
-2.665
  20
3.764
  0
VERTEX
  8
7
  10
-2.638
  20
3.802
  0
VERTEX
  8
7
  10
-2.598
  20
3.828
  0
VERTEX
  8
7
  10
-2.550
  20
3.837
  0
SEQEND
  0
POLYLINE
  8
7
  6
CONTINUOUS
 66
  1
  0
VERTEX
  8
7
  10
-2.510
  20
-0.583
  0
VERTEX
  8
7
  10
-1.998
  20
-0.583
  0
VERTEX
  8
7
  10
-1.961
  20
-0.590
  0
VERTEX
  8
7
  10
-1.932
  20
-0.609
  0
VERTEX
  8
7
  10
-1.911
  20
-0.637
  0
VERTEX
  8
7
  10
-1.904
  20
-0.671
  0
VERTEX
  8
7
  10
-1.904
  20
-1.194
  0
VERTEX
  8
7
  10
-1.911
  20
-1.229
  0
VERTEX
  8
7
  10
-1.932
  20
-1.257
  0
VERTEX
  8
7
  10
-1.961
  20
-1.276
  0
VERTEX
  8
7
  10
-1.998
  20
-1.283
  0
VERTEX
  8
7
  10
-2.510
  20
-1.283
  0
VERTEX
  8
7
  10
-2.546
  20
-1.276
  0
VERTEX
  8
7
  10
-2.576
  20
-1.257
  0
VERTEX
  8
7
  10
-2.596
  20
-1.229
  0
VERTEX
  8
7
  10
-2.604
  20
-1.194
  0
VERTEX
  8
7
  10
-2.604
  20
-0.671
  0
VERTEX
  8
7
  10
-2.596
  20
-0.637
  0
VERTEX
  8
7
  10
-2.576
  20
-0.609
  0
VERTEX
  8
7
  10
-2.546
  20
-0.590
  0
VERTEX
  8
7
  10
-2.510
  20
-0.583
  0
SEQEND
  0
POLYLINE
  8
7
  6
CONTINUOUS
 66
  1
  0
VERTEX
  8
7
  10
-2.510
  20
-1.333
  0
VERTEX
  8
7
  10
-1.998
  20
-1.333
  0
VERTEX
  8
7
  10
-1.961
  20
-1.340
  0
VERTEX
  8
7
  10
-1.932
  20
-1.359
  0
VERTEX
  8
7
  10
-1.911
  20
-1.387
  0
VERTEX
  8
7
  10
-1.904
  20
-1.421
  0
VERTEX
  8
7
  10
-1.904
  20
-1.944
  0
VERTEX
  8
7
  10
-1.911
  20
-1.979
  0
VERTEX
  8
7
  10
-1.932
  20
-2.007
  0
VERTEX
  8
7
  10
-1.961
  20
-2.026
  0
VERTEX
  8
7
  10
-1.998
  20
-2.033
  0
VERTEX
  8
7
  10
-2.510
  20
-2.033
  0
VERTEX
  8
7
  10
-2.546
  20
-2.026
  0
VERTEX
  8
7
  10
-2.576
  20
-2.007
  0
VERTEX
  8
7
  10
-2.596
  20
-1.979
  0
VERTEX
  8
7
  10
-2.604
  20
-1.944
  0
VERTEX
  8
7
  10
-2.604
  20
-1.421
  0
VERTEX
  8
7
  10
-2.596
  20
-1.387
  0
VERTEX
  8
7
  10
-2.576
  20
-1.359
  0
VERTEX
  8
7
  10
-2.546
  20
-1.340
  0
VERTEX
  8
7
  10
-2.510
  20
-1.333
  0
SEQEND
  0
POLYLINE
  8
7
  6
CONTINUOUS
 66
  1
  0
VERTEX
  8
7
  10
-1.760
  20
-1.708
  0
VERTEX
  8
7
  10
-1.248
  20
-1.708
  0
VERTEX
  8
7
  10
-1.211
  20
-1.715
  0
VERTEX
  8
7
  10
-1.182
  20
-1.734
  0
VERTEX
  8
7
  10
-1.161
  20
-1.762
  0
VERTEX
  8
7
  10
-1.154
  20
-1.796
  0
VERTEX
  8
7
  10
-1.154
  20
-2.319
  0
VERTEX
  8
7
  10
-1.161
  20
-2.354
  0
VERTEX
  8
7
  10
-1.182
  20
-2.382
  0
VERTEX
  8
7
  10
-1.211
  20
-2.401
  0
VERTEX
  8
7
  10
-1.248
  20
-2.408
  0
VERTEX
  8
7
  10
-1.760
  20
-2.408
  0
VERTEX
  8
7
  10
-1.796
  20
-2.401
  0
VERTEX
  8
7
  10
-1.826
  20
-2.382
  0
VERTEX
  8
7
  10
-1.846
  20
-2.354
  0
VERTEX
  8
7
  10
-1.854
  20
-2.319
  0
VERTEX
  8
7
  10
-1.854
  20
-1.796
  0
VERTEX
  8
7
  10
-1.846
  20
-1.762
  0
VERTEX
  8
7
  10
-1.826
  20
-1.734
  0
VERTEX
  8
7
  10
-1.796
  20
-1.715
  0
VERTEX
  8
7
  10
-1.760
  20
-1.708
  0
SEQEND
  0
POLYLINE
  8
7
  6
CONTINUOUS
 66
  1
  0
VERTEX
  8
7
  10
-1.760
  20
-0.958
  0
VERTEX
  8
7
  10
-1.248
  20
-0.958
  0
VERTEX
  8
7
  10
-1.211
  20
-0.965
  0
VERTEX
  8
7
  10
-1.182
  20
-0.984
  0
VERTEX
  8
7
  10
-1.161
  20
-1.012
  0
VERTEX
  8
7
  10
-1.154
  20
-1.046
  0
VERTEX
  8
7
  10
-1.154
  20
-1.569
  0
VERTEX
  8
7
  10
-1.161
  20
-1.604
  0
VERTEX
  8
7
  10
-1.182
  20
-1.632
  0
VERTEX
  8
7
  10
-1.211
  20
-1.651
  0
VERTEX
  8
7
  10
-1.248
  20
-1.658
  0
VERTEX
  8
7
  10
-1.760
  20
-1.658
  0
VERTEX
  8
7
  10
-1.796
  20
-1.651
  0
VERTEX
  8
7
  10
-1.826
  20
-1.632
  0
VERTEX
  8
7
  10
-1.846
  20
-1.604
  0
VERTEX
  8
7
  10
-1.854
  20
-1.569
  0
VERTEX
  8
7
  10
-1.854
  20
-1.046
  0
VERTEX
  8
7
  10
-1.846
  20
-1.012
  0
VERTEX
  8
7
  10
-1.826
  20
-0.984
  0
VERTEX
  8
7
  10
-1.796
  20
-0.965
  0
VERTEX
  8
7
  10
-1.760
  20
-0.958
  0
SEQEND
  0
POLYLINE
  8
7
  6
CONTINUOUS
 66
  1
  0
VERTEX
  8
7
  10
-1.760
  20
-0.208
  0
VERTEX
  8
7
  10
-1.248
  20
-0.208
  0
VERTEX
  8
7
  10
-1.211
  20
-0.215
  0
VERTEX
  8
7
  10
-1.182
  20
-0.234
  0
VERTEX
  8
7
  10
-1.161
  20
-0.262
  0
VERTEX
  8
7
  10
-1.154
  20
-0.296
  0
VERTEX
  8
7
  10
-1.154
  20
-0.819
  0
VERTEX
  8
7
  10
-1.161
  20
-0.854
  0
VERTEX
  8
7
  10
-1.182
  20
-0.882
  0
VERTEX
  8
7
  10
-1.211
  20
-0.901
  0
VERTEX
  8
7
  10
-1.248
  20
-0.908
  0
VERTEX
  8
7
  10
-1.760
  20
-0.908
  0
VERTEX
  8
7
  10
-1.796
  20
-0.901
  0
VERTEX
  8
7
  10
-1.826
  20
-0.882
  0
VERTEX
  8
7
  10
-1.846
  20
-0.854
  0
VERTEX
  8
7
  10
-1.854
  20
-0.819
  0
VERTEX
  8
7
  10
-1.854
  20
-0.296
  0
VERTEX
  8
7
  10
-1.846
  20
-0.262
  0
VERTEX
  8
7
  10
-1.826
  20
-0.234
  0
VERTEX
  8
7
  10
-1.796
  20
-0.215
  0
VERTEX
  8
7
  10
-1.760
  20
-0.208
  0
SEQEND
  0
POLYLINE
  8
7
  6
CONTINUOUS
 66
  1
  0
VERTEX
  8
7
  10
-1.008
  20
-1.708
  0
VERTEX
  8
7
  10
-0.496
  20
-1.708
  0
VERTEX
  8
7
  10
-0.460
  20
-1.715
  0
VERTEX
  8
7
  10
-0.430
  20
-1.734
  0
VERTEX
  8
7
  10
-0.410
  20
-1.762
  0
VERTEX
  8
7
  10
-0.402
  20
-1.796
  0
VERTEX
  8
7
  10
-0.402
  20
-2.319
  0
VERTEX
  8
7
  10
-0.410
  20
-2.354
  0
VERTEX
  8
7
  10
-0.430
  20
-2.382
  0
VERTEX
  8
7
  10
-0.460
  20
-2.401
  0
VERTEX
  8
7
  10
-0.496
  20
-2.408
  0
VERTEX
  8
7
  10
-1.008
  20
-2.408
  0
VERTEX
  8
7
  10
-1.045
  20
-2.401
  0
VERTEX
  8
7
  10
-1.075
  20
-2.382
  0
VERTEX
  8
7
  10
-1.095
  20
-2.354
  0
VERTEX
  8
7
  10
-1.102
  20
-2.319
  0
VERTEX
  8
7
  10
-1.102
  20
-1.796
  0
VERTEX
  8
7
  10
-1.095
  20
-1.762
  0
VERTEX
  8
7
  10
-1.075
  20
-1.734
  0
VERTEX
  8
7
  10
-1.045
  20
-1.715
  0
VERTEX
  8
7
  10
-1.008
  20
-1.708
  0
SEQEND
  0
POLYLINE
  8
7
  6
CONTINUOUS
 66
  1
  0
VERTEX
  8
7
  10
-1.008
  20
-0.959
  0
VERTEX
  8
7
  10
-0.496
  20
-0.959
  0
VERTEX
  8
7
  10
-0.460
  20
-0.965
  0
VERTEX
  8
7
  10
-0.430
  20
-0.985
  0
VERTEX
  8
7
  10
-0.410
  20
-1.013
  0
VERTEX
  8
7
  10
-0.402
  20
-1.047
  0
VERTEX
  8
7
  10
-0.402
  20
-1.570
  0
VERTEX
  8
7
  10
-0.410
  20
-1.604
  0
VERTEX
  8
7
  10
-0.430
  20
-1.632
  0
VERTEX
  8
7
  10
-0.460
  20
-1.652
  0
VERTEX
  8
7
  10
-0.496
  20
-1.659
  0
VERTEX
  8
7
  10
-1.008
  20
-1.659
  0
VERTEX
  8
7
  10
-1.045
  20
-1.652
  0
VERTEX
  8
7
  10
-1.075
  20
-1.632
  0
VERTEX
  8
7
  10
-1.095
  20
-1.604
  0
VERTEX
  8
7
  10
-1.102
  20
-1.570
  0
VERTEX
  8
7
  10
-1.102
  20
-1.047
  0
VERTEX
  8
7
  10
-1.095
  20
-1.013
  0
VERTEX
  8
7
  10
-1.075
  20
-0.985
  0
VERTEX
  8
7
  10
-1.045
  20
-0.965
  0
VERTEX
  8
7
  10
-1.008
  20
-0.959
  0
SEQEND
  0
POLYLINE
  8
7
  6
CONTINUOUS
 66
  1
  0
VERTEX
  8
7
  10
-1.008
  20
-0.206
  0
VERTEX
  8
7
  10
-0.496
  20
-0.206
  0
VERTEX
  8
7
  10
-0.460
  20
-0.213
  0
VERTEX
  8
7
  10
-0.430
  20
-0.232
  0
VERTEX
  8
7
  10
-0.410
  20
-0.260
  0
VERTEX
  8
7
  10
-0.402
  20
-0.295
  0
VERTEX
  8
7
  10
-0.402
  20
-0.817
  0
VERTEX
  8
7
  10
-0.410
  20
-0.852
  0
VERTEX
  8
7
  10
-0.430
  20
-0.880
  0
VERTEX
  8
7
  10
-0.460
  20
-0.899
  0
VERTEX
  8
7
  10
-0.496
  20
-0.906
  0
VERTEX
  8
7
  10
-1.008
  20
-0.906
  0
VERTEX
  8
7
  10
-1.045
  20
-0.899
  0
VERTEX
  8
7
  10
-1.075
  20
-0.880
  0
VERTEX
  8
7
  10
-1.095
  20
-0.852
  0
VERTEX
  8
7
  10
-1.102
  20
-0.817
  0
VERTEX
  8
7
  10
-1.102
  20
-0.295
  0
VERTEX
  8
7
  10
-1.095
  20
-0.260
  0
VERTEX
  8
7
  10
-1.075
  20
-0.232
  0
VERTEX
  8
7
  10
-1.045
  20
-0.213
  0
VERTEX
  8
7
  10
-1.008
  20
-0.206
  0
SEQEND
  0
POLYLINE
  8
7
  6
CONTINUOUS
 66
  1
  0
VERTEX
  8
7
  10
-0.260
  20
-1.708
  0
VERTEX
  8
7
  10
0.251
  20
-1.708
  0
VERTEX
  8
7
  10
0.288
  20
-1.715
  0
VERTEX
  8
7
  10
0.318
  20
-1.734
  0
VERTEX
  8
7
  10
0.338
  20
-1.762
  0
VERTEX
  8
7
  10
0.345
  20
-1.796
  0
VERTEX
  8
7
  10
0.345
  20
-2.319
  0
VERTEX
  8
7
  10
0.338
  20
-2.354
  0
VERTEX
  8
7
  10
0.318
  20
-2.382
  0
VERTEX
  8
7
  10
0.288
  20
-2.401
  0
VERTEX
  8
7
  10
0.251
  20
-2.408
  0
VERTEX
  8
7
  10
-0.260
  20
-2.408
  0
VERTEX
  8
7
  10
-0.296
  20
-2.401
  0
VERTEX
  8
7
  10
-0.326
  20
-2.382
  0
VERTEX
  8
7
  10
-0.346
  20
-2.354
  0
VERTEX
  8
7
  10
-0.354
  20
-2.319
  0
VERTEX
  8
7
  10
-0.354
  20
-1.796
  0
VERTEX
  8
7
  10
-0.346
  20
-1.762
  0
VERTEX
  8
7
  10
-0.326
  20
-1.734
  0
VERTEX
  8
7
  10
-0.296
  20
-1.715
  0
VERTEX
  8
7
  10
-0.260
  20
-1.708
  0
SEQEND
  0
POLYLINE
  8
7
  6
CONTINUOUS
 66
  1
  0
VERTEX
  8
7
  10
-0.260
  20
-0.958
  0
VERTEX
  8
7
  10
0.251
  20
-0.958
  0
VERTEX
  8
7
  10
0.288
  20
-0.965
  0
VERTEX
  8
7
  10
0.318
  20
-0.984
  0
VERTEX
  8
7
  10
0.338
  20
-1.012
  0
VERTEX
  8
7
  10
0.345
  20
-1.046
  0
VERTEX
  8
7
  10
0.345
  20
-1.569
  0
VERTEX
  8
7
  10
0.338
  20
-1.604
  0
VERTEX
  8
7
  10
0.318
  20
-1.632
  0
VERTEX
  8
7
  10
0.288
  20
-1.651
  0
VERTEX
  8
7
  10
0.251
  20
-1.658
  0
VERTEX
  8
7
  10
-0.260
  20
-1.658
  0
VERTEX
  8
7
  10
-0.296
  20
-1.651
  0
VERTEX
  8
7
  10
-0.326
  20
-1.632
  0
VERTEX
  8
7
  10
-0.346
  20
-1.604
  0
VERTEX
  8
7
  10
-0.354
  20
-1.569
  0
VERTEX
  8
7
  10
-0.354
  20
-1.046
  0
VERTEX
  8
7
  10
-0.346
  20
-1.012
  0
VERTEX
  8
7
  10
-0.326
  20
-0.984
  0
VERTEX
  8
7
  10
-0.296
  20
-0.965
  0
VERTEX
  8
7
  10
-0.260
  20
-0.958
  0
SEQEND
  0
POLYLINE
  8
7
  6
CONTINUOUS
 66
  1
  0
VERTEX
  8
7
  10
-0.260
  20
-0.208
  0
VERTEX
  8
7
  10
0.251
  20
-0.208
  0
VERTEX
  8
7
  10
0.288
  20
-0.215
  0
VERTEX
  8
7
  10
0.318
  20
-0.234
  0
VERTEX
  8
7
  10
0.338
  20
-0.262
  0
VERTEX
  8
7
  10
0.345
  20
-0.296
  0
VERTEX
  8
7
  10
0.345
  20
-0.819
  0
VERTEX
  8
7
  10
0.338
  20
-0.854
  0
VERTEX
  8
7
  10
0.318
  20
-0.882
  0
VERTEX
  8
7
  10
0.288
  20
-0.901
  0
VERTEX
  8
7
  10
0.251
  20
-0.908
  0
VERTEX
  8
7
  10
-0.260
  20
-0.908
  0
VERTEX
  8
7
  10
-0.296
  20
-0.901
  0
VERTEX
  8
7
  10
-0.326
  20
-0.882
  0
VERTEX
  8
7
  10
-0.346
  20
-0.854
  0
VERTEX
  8
7
  10
-0.354
  20
-0.819
  0
VERTEX
  8
7
  10
-0.354
  20
-0.296
  0
VERTEX
  8
7
  10
-0.346
  20
-0.262
  0
VERTEX
  8
7
  10
-0.326
  20
-0.234
  0
VERTEX
  8
7
  10
-0.296
  20
-0.215
  0
VERTEX
  8
7
  10
-0.260
  20
-0.208
  0
SEQEND
  0
POLYLINE
  8
7
  6
CONTINUOUS
 66
  1
  0
VERTEX
  8
7
  10
0.489
  20
-1.708
  0
VERTEX
  8
7
  10
1.001
  20
-1.708
  0
VERTEX
  8
7
  10
1.038
  20
-1.715
  0
VERTEX
  8
7
  10
1.068
  20
-1.734
  0
VERTEX
  8
7
  10
1.088
  20
-1.762
  0
VERTEX
  8
7
  10
1.095
  20
-1.796
  0
VERTEX
  8
7
  10
1.095
  20
-2.319
  0
VERTEX
  8
7
  10
1.088
  20
-2.354
  0
VERTEX
  8
7
  10
1.068
  20
-2.382
  0
VERTEX
  8
7
  10
1.038
  20
-2.401
  0
VERTEX
  8
7
  10
1.001
  20
-2.408
  0
VERTEX
  8
7
  10
0.489
  20
-2.408
  0
VERTEX
  8
7
  10
0.453
  20
-2.401
  0
VERTEX
  8
7
  10
0.423
  20
-2.382
  0
VERTEX
  8
7
  10
0.403
  20
-2.354
  0
VERTEX
  8
7
  10
0.395
  20
-2.319
  0
VERTEX
  8
7
  10
0.395
  20
-1.796
  0
VERTEX
  8
7
  10
0.403
  20
-1.762
  0
VERTEX
  8
7
  10
0.423
  20
-1.734
  0
VERTEX
  8
7
  10
0.453
  20
-1.715
  0
VERTEX
  8
7
  10
0.489
  20
-1.708
  0
SEQEND
  0
POLYLINE
  8
7
  6
CONTINUOUS
 66
  1
  0
VERTEX
  8
7
  10
0.489
  20
-0.958
  0
VERTEX
  8
7
  10
1.001
  20
-0.958
  0
VERTEX
  8
7
  10
1.038
  20
-0.965
  0
VERTEX
  8
7
  10
1.068
  20
-0.984
  0
VERTEX
  8
7
  10
1.088
  20
-1.012
  0
VERTEX
  8
7
  10
1.095
  20
-1.046
  0
VERTEX
  8
7
  10
1.095
  20
-1.569
  0
VERTEX
  8
7
  10
1.088
  20
-1.604
  0
VERTEX
  8
7
  10
1.068
  20
-1.632
  0
VERTEX
  8
7
  10
1.038
  20
-1.651
  0
VERTEX
  8
7
  10
1.001
  20
-1.658
  0
VERTEX
  8
7
  10
0.489
  20
-1.658
  0
VERTEX
  8
7
  10
0.453
  20
-1.651
  0
VERTEX
  8
7
  10
0.423
  20
-1.632
  0
VERTEX
  8
7
  10
0.403
  20
-1.604
  0
VERTEX
  8
7
  10
0.395
  20
-1.569
  0
VERTEX
  8
7
  10
0.395
  20
-1.046
  0
VERTEX
  8
7
  10
0.403
  20
-1.012
  0
VERTEX
  8
7
  10
0.423
  20
-0.984
  0
VERTEX
  8
7
  10
0.453
  20
-0.965
  0
VERTEX
  8
7
  10
0.489
  20
-0.958
  0
SEQEND
  0
POLYLINE
  8
7
  6
CONTINUOUS
 66
  1
  0
VERTEX
  8
7
  10
0.489
  20
-0.208
  0
VERTEX
  8
7
  10
1.001
  20
-0.208
  0
VERTEX
  8
7
  10
1.038
  20
-0.215
  0
VERTEX
  8
7
  10
1.068
  20
-0.234
  0
VERTEX
  8
7
  10
1.088
  20
-0.262
  0
VERTEX
  8
7
  10
1.095
  20
-0.296
  0
VERTEX
  8
7
  10
1.095
  20
-0.819
  0
VERTEX
  8
7
  10
1.088
  20
-0.854
  0
VERTEX
  8
7
  10
1.068
  20
-0.882
  0
VERTEX
  8
7
  10
1.038
  20
-0.901
  0
VERTEX
  8
7
  10
1.001
  20
-0.908
  0
VERTEX
  8
7
  10
0.489
  20
-0.908
  0
VERTEX
  8
7
  10
0.453
  20
-0.901
  0
VERTEX
  8
7
  10
0.423
  20
-0.882
  0
VERTEX
  8
7
  10
0.403
  20
-0.854
  0
VERTEX
  8
7
  10
0.395
  20
-0.819
  0
VERTEX
  8
7
  10
0.395
  20
-0.296
  0
VERTEX
  8
7
  10
0.403
  20
-0.262
  0
VERTEX
  8
7
  10
0.423
  20
-0.234
  0
VERTEX
  8
7
  10
0.453
  20
-0.215
  0
VERTEX
  8
7
  10
0.489
  20
-0.208
  0
SEQEND
  0
POLYLINE
  8
7
  6
CONTINUOUS
 66
  1
  0
VERTEX
  8
7
  10
1.239
  20
-1.708
  0
VERTEX
  8
7
  10
1.751
  20
-1.708
  0
VERTEX
  8
7
  10
1.788
  20
-1.715
  0
VERTEX
  8
7
  10
1.818
  20
-1.734
  0
VERTEX
  8
7
  10
1.838
  20
-1.762
  0
VERTEX
  8
7
  10
1.845
  20
-1.796
  0
VERTEX
  8
7
  10
1.845
  20
-2.319
  0
VERTEX
  8
7
  10
1.838
  20
-2.354
  0
VERTEX
  8
7
  10
1.818
  20
-2.382
  0
VERTEX
  8
7
  10
1.788
  20
-2.401
  0
VERTEX
  8
7
  10
1.751
  20
-2.408
  0
VERTEX
  8
7
  10
1.239
  20
-2.408
  0
VERTEX
  8
7
  10
1.203
  20
-2.401
  0
VERTEX
  8
7
  10
1.173
  20
-2.382
  0
VERTEX
  8
7
  10
1.153
  20
-2.354
  0
VERTEX
  8
7
  10
1.145
  20
-2.319
  0
VERTEX
  8
7
  10
1.145
  20
-1.796
  0
VERTEX
  8
7
  10
1.153
  20
-1.762
  0
VERTEX
  8
7
  10
1.173
  20
-1.734
  0
VERTEX
  8
7
  10
1.203
  20
-1.715
  0
VERTEX
  8
7
  10
1.239
  20
-1.708
  0
SEQEND
  0
POLYLINE
  8
7
  6
CONTINUOUS
 66
  1
  0
VERTEX
  8
7
  10
1.239
  20
-0.958
  0
VERTEX
  8
7
  10
1.751
  20
-0.958
  0
VERTEX
  8
7
  10
1.788
  20
-0.965
  0
VERTEX
  8
7
  10
1.818
  20
-0.984
  0
VERTEX
  8
7
  10
1.838
  20
-1.012
  0
VERTEX
  8
7
  10
1.845
  20
-1.046
  0
VERTEX
  8
7
  10
1.845
  20
-1.569
  0
VERTEX
  8
7
  10
1.838
  20
-1.604
  0
VERTEX
  8
7
  10
1.818
  20
-1.632
  0
VERTEX
  8
7
  10
1.788
  20
-1.651
  0
VERTEX
  8
7
  10
1.751
  20
-1.658
  0
VERTEX
  8
7
  10
1.239
  20
-1.658
  0
VERTEX
  8
7
  10
1.203
  20
-1.651
  0
VERTEX
  8
7
  10
1.173
  20
-1.632
  0
VERTEX
  8
7
  10
1.153
  20
-1.604
  0
VERTEX
  8
7
  10
1.145
  20
-1.569
  0
VERTEX
  8
7
  10
1.145
  20
-1.046
  0
VERTEX
  8
7
  10
1.153
  20
-1.012
  0
VERTEX
  8
7
  10
1.173
  20
-0.984
  0
VERTEX
  8
7
  10
1.203
  20
-0.965
  0
VERTEX
  8
7
  10
1.239
  20
-0.958
  0
SEQEND
  0
POLYLINE
  8
7
  6
CONTINUOUS
 66
  1
  0
VERTEX
  8
7
  10
1.239
  20
-0.208
  0
VERTEX
  8
7
  10
1.751
  20
-0.208
  0
VERTEX
  8
7
  10
1.788
  20
-0.215
  0
VERTEX
  8
7
  10
1.818
  20
-0.234
  0
VERTEX
  8
7
  10
1.838
  20
-0.262
  0
VERTEX
  8
7
  10
1.845
  20
-0.296
  0
VERTEX
  8
7
  10
1.845
  20
-0.819
  0
VERTEX
  8
7
  10
1.838
  20
-0.854
  0
VERTEX
  8
7
  10
1.818
  20
-0.882
  0
VERTEX
  8
7
  10
1.788
  20
-0.901
  0
VERTEX
  8
7
  10
1.751
  20
-0.908
  0
VERTEX
  8
7
  10
1.239
  20
-0.908
  0
VERTEX
  8
7
  10
1.203
  20
-0.901
  0
VERTEX
  8
7
  10
1.173
  20
-0.882
  0
VERTEX
  8
7
  10
1.153
  20
-0.854
  0
VERTEX
  8
7
  10
1.145
  20
-0.819
  0
VERTEX
  8
7
  10
1.145
  20
-0.296
  0
VERTEX
  8
7
  10
1.153
  20
-0.262
  0
VERTEX
  8
7
  10
1.173
  20
-0.234
  0
VERTEX
  8
7
  10
1.203
  20
-0.215
  0
VERTEX
  8
7
  10
1.239
  20
-0.208
  0
SEQEND
  0
POLYLINE
  8
7
  6
CONTINUOUS
 66
  1
  0
VERTEX
  8
7
  10
1.989
  20
-0.583
  0
VERTEX
  8
7
  10
2.501
  20
-0.583
  0
VERTEX
  8
7
  10
2.538
  20
-0.590
  0
VERTEX
  8
7
  10
2.568
  20
-0.609
  0
VERTEX
  8
7
  10
2.588
  20
-0.637
  0
VERTEX
  8
7
  10
2.595
  20
-0.671
  0
VERTEX
  8
7
  10
2.595
  20
-1.194
  0
VERTEX
  8
7
  10
2.588
  20
-1.229
  0
VERTEX
  8
7
  10
2.568
  20
-1.257
  0
VERTEX
  8
7
  10
2.538
  20
-1.276
  0
VERTEX
  8
7
  10
2.501
  20
-1.283
  0
VERTEX
  8
7
  10
1.989
  20
-1.283
  0
VERTEX
  8
7
  10
1.953
  20
-1.276
  0
VERTEX
  8
7
  10
1.923
  20
-1.257
  0
VERTEX
  8
7
  10
1.903
  20
-1.229
  0
VERTEX
  8
7
  10
1.895
  20
-1.194
  0
VERTEX
  8
7
  10
1.895
  20
-0.671
  0
VERTEX
  8
7
  10
1.903
  20
-0.637
  0
VERTEX
  8
7
  10
1.923
  20
-0.609
  0
VERTEX
  8
7
  10
1.953
  20
-0.590
  0
VERTEX
  8
7
  10
1.989
  20
-0.583
  0
SEQEND
  0
POLYLINE
  8
7
  6
CONTINUOUS
 66
  1
  0
VERTEX
  8
7
  10
1.989
  20
-1.333
  0
VERTEX
  8
7
  10
2.501
  20
-1.333
  0
VERTEX
  8
7
  10
2.538
  20
-1.340
  0
VERTEX
  8
7
  10
2.568
  20
-1.359
  0
VERTEX
  8
7
  10
2.588
  20
-1.387
  0
VERTEX
  8
7
  10
2.595
  20
-1.421
  0
VERTEX
  8
7
  10
2.595
  20
-1.944
  0
VERTEX
  8
7
  10
2.588
  20
-1.979
  0
VERTEX
  8
7
  10
2.568
  20
-2.007
  0
VERTEX
  8
7
  10
2.538
  20
-2.026
  0
VERTEX
  8
7
  10
2.501
  20
-2.033
  0
VERTEX
  8
7
  10
1.989
  20
-2.033
  0
VERTEX
  8
7
  10
1.953
  20
-2.026
  0
VERTEX
  8
7
  10
1.923
  20
-2.007
  0
VERTEX
  8
7
  10
1.903
  20
-1.979
  0
VERTEX
  8
7
  10
1.895
  20
-1.944
  0
VERTEX
  8
7
  10
1.895
  20
-1.421
  0
VERTEX
  8
7
  10
1.903
  20
-1.387
  0
VERTEX
  8
7
  10
1.923
  20
-1.359
  0
VERTEX
  8
7
  10
1.953
  20
-1.340
  0
VERTEX
  8
7
  10
1.989
  20
-1.333
  0
SEQEND
  0
POLYLINE
  8
7
  6
CONTINUOUS
 66
  1
  0
VERTEX
  8
7
  10
-2.253
  20
-2.398
  0
VERTEX
  8
7
  10
-2.239
  20
-2.401
  0
VERTEX
  8
7
  10
-2.227
  20
-2.409
  0
VERTEX
  8
7
  10
-2.218
  20
-2.421
  0
VERTEX
  8
7
  10
-2.215
  20
-2.436
  0
VERTEX
  8
7
  10
-2.218
  20
-2.451
  0
VERTEX
  8
7
  10
-2.227
  20
-2.463
  0
VERTEX
  8
7
  10
-2.239
  20
-2.471
  0
VERTEX
  8
7
  10
-2.253
  20
-2.474
  0
VERTEX
  8
7
  10
-2.268
  20
-2.471
  0
VERTEX
  8
7
  10
-2.280
  20
-2.463
  0
VERTEX
  8
7
  10
-2.288
  20
-2.451
  0
VERTEX
  8
7
  10
-2.291
  20
-2.436
  0
VERTEX
  8
7
  10
-2.288
  20
-2.421
  0
VERTEX
  8
7
  10
-2.280
  20
-2.409
  0
VERTEX
  8
7
  10
-2.268
  20
-2.401
  0
VERTEX
  8
7
  10
-2.253
  20
-2.398
  0
SEQEND
  0
POLYLINE
  8
7
  6
CONTINUOUS
 66
  1
  0
VERTEX
  8
7
  10
-2.256
  20
-0.144
  0
VERTEX
  8
7
  10
-2.241
  20
-0.147
  0
VERTEX
  8
7
  10
-2.229
  20
-0.155
  0
VERTEX
  8
7
  10
-2.221
  20
-0.167
  0
VERTEX
  8
7
  10
-2.218
  20
-0.181
  0
VERTEX
  8
7
  10
-2.221
  20
-0.196
  0
VERTEX
  8
7
  10
-2.229
  20
-0.208
  0
VERTEX
  8
7
  10
-2.241
  20
-0.216
  0
VERTEX
  8
7
  10
-2.256
  20
-0.219
  0
VERTEX
  8
7
  10
-2.271
  20
-0.216
  0
VERTEX
  8
7
  10
-2.283
  20
-0.208
  0
VERTEX
  8
7
  10
-2.291
  20
-0.196
  0
VERTEX
  8
7
  10
-2.294
  20
-0.181
  0
VERTEX
  8
7
  10
-2.291
  20
-0.167
  0
VERTEX
  8
7
  10
-2.283
  20
-0.155
  0
VERTEX
  8
7
  10
-2.271
  20
-0.147
  0
VERTEX
  8
7
  10
-2.256
  20
-0.144
  0
SEQEND
  0
POLYLINE
  8
7
  6
CONTINUOUS
 66
  1
  0
VERTEX
  8
7
  10
2.245
  20
-2.398
  0
VERTEX
  8
7
  10
2.260
  20
-2.401
  0
VERTEX
  8
7
  10
2.272
  20
-2.409
  0
VERTEX
  8
7
  10
2.280
  20
-2.421
  0
VERTEX
  8
7
  10
2.283
  20
-2.435
  0
VERTEX
  8
7
  10
2.280
  20
-2.450
  0
VERTEX
  8
7
  10
2.272
  20
-2.462
  0
VERTEX
  8
7
  10
2.260
  20
-2.470
  0
VERTEX
  8
7
  10
2.245
  20
-2.473
  0
VERTEX
  8
7
  10
2.231
  20
-2.470
  0
VERTEX
  8
7
  10
2.219
  20
-2.462
  0
VERTEX
  8
7
  10
2.210
  20
-2.450
  0
VERTEX
  8
7
  10
2.208
  20
-2.435
  0
VERTEX
  8
7
  10
2.210
  20
-2.421
  0
VERTEX
  8
7
  10
2.219
  20
-2.409
  0
VERTEX
  8
7
  10
2.231
  20
-2.401
  0
VERTEX
  8
7
  10
2.245
  20
-2.398
  0
SEQEND
  0
POLYLINE
  8
7
  6
CONTINUOUS
 66
  1
  0
VERTEX
  8
7
  10
2.245
  20
-2.397
  0
VERTEX
  8
7
  10
2.260
  20
-2.400
  0
VERTEX
  8
7
  10
2.272
  20
-2.408
  0
VERTEX
  8
7
  10
2.280
  20
-2.420
  0
VERTEX
  8
7
  10
2.283
  20
-2.435
  0
VERTEX
  8
7
  10
2.280
  20
-2.449
  0
VERTEX
  8
7
  10
2.272
  20
-2.461
  0
VERTEX
  8
7
  10
2.260
  20
-2.469
  0
VERTEX
  8
7
  10
2.245
  20
-2.472
  0
VERTEX
  8
7
  10
2.231
  20
-2.469
  0
VERTEX
  8
7
  10
2.219
  20
-2.461
  0
VERTEX
  8
7
  10
2.210
  20
-2.449
  0
VERTEX
  8
7
  10
2.207
  20
-2.435
  0
VERTEX
  8
7
  10
2.210
  20
-2.420
  0
VERTEX
  8
7
  10
2.219
  20
-2.408
  0
VERTEX
  8
7
  10
2.231
  20
-2.400
  0
VERTEX
  8
7
  10
2.245
  20
-2.397
  0
SEQEND
  0
POLYLINE
  8
7
  6
CONTINUOUS
 66
  1
  0
VERTEX
  8
7
  10
2.245
  20
-0.143
  0
VERTEX
  8
7
  10
2.260
  20
-0.146
  0
VERTEX
  8
7
  10
2.272
  20
-0.154
  0
VERTEX
  8
7
  10
2.280
  20
-0.166
  0
VERTEX
  8
7
  10
2.283
  20
-0.180
  0
VERTEX
  8
7
  10
2.280
  20
-0.195
  0
VERTEX
  8
7
  10
2.272
  20
-0.207
  0
VERTEX
  8
7
  10
2.260
  20
-0.215
  0
VERTEX
  8
7
  10
2.245
  20
-0.218
  0
VERTEX
  8
7
  10
2.231
  20
-0.215
  0
VERTEX
  8
7
  10
2.219
  20
-0.207
  0
VERTEX
  8
7
  10
2.210
  20
-0.195
  0
VERTEX
  8
7
  10
2.207
  20
-0.180
  0
VERTEX
  8
7
  10
2.210
  20
-0.166
  0
VERTEX
  8
7
  10
2.219
  20
-0.154
  0
VERTEX
  8
7
  10
2.231
  20
-0.146
  0
VERTEX
  8
7
  10
2.245
  20
-0.143
  0
SEQEND
  0
POLYLINE
  8
7
  6
CONTINUOUS
 66
  1
  0
VERTEX
  8
7
  10
2.245
  20
-0.143
  0
VERTEX
  8
7
  10
2.260
  20
-0.146
  0
VERTEX
  8
7
  10
2.272
  20
-0.154
  0
VERTEX
  8
7
  10
2.280
  20
-0.166
  0
VERTEX
  8
7
  10
2.283
  20
-0.180
  0
VERTEX
  8
7
  10
2.280
  20
-0.195
  0
VERTEX
  8
7
  10
2.272
  20
-0.207
  0
VERTEX
  8
7
  10
2.260
  20
-0.215
  0
VERTEX
  8
7
  10
2.245
  20
-0.218
  0
VERTEX
  8
7
  10
2.230
  20
-0.215
  0
VERTEX
  8
7
  10
2.218
  20
-0.207
  0
VERTEX
  8
7
  10
2.210
  20
-0.195
  0
VERTEX
  8
7
  10
2.207
  20
-0.180
  0
VERTEX
  8
7
  10
2.210
  20
-0.166
  0
VERTEX
  8
7
  10
2.218
  20
-0.154
  0
VERTEX
  8
7
  10
2.230
  20
-0.146
  0
VERTEX
  8
7
  10
2.245
  20
-0.143
  0
SEQEND
  0
POLYLINE
  8
7
  6
CONTINUOUS
 66
  1
  0
VERTEX
  8
7
  10
-2.253
  20
-0.144
  0
VERTEX
  8
7
  10
-2.239
  20
-0.147
  0
VERTEX
  8
7
  10
-2.227
  20
-0.155
  0
VERTEX
  8
7
  10
-2.219
  20
-0.167
  0
VERTEX
  8
7
  10
-2.216
  20
-0.182
  0
VERTEX
  8
7
  10
-2.219
  20
-0.197
  0
VERTEX
  8
7
  10
-2.227
  20
-0.209
  0
VERTEX
  8
7
  10
-2.239
  20
-0.217
  0
VERTEX
  8
7
  10
-2.253
  20
-0.220
  0
VERTEX
  8
7
  10
-2.268
  20
-0.217
  0
VERTEX
  8
7
  10
-2.280
  20
-0.209
  0
VERTEX
  8
7
  10
-2.288
  20
-0.197
  0
VERTEX
  8
7
  10
-2.291
  20
-0.182
  0
VERTEX
  8
7
  10
-2.288
  20
-0.167
  0
VERTEX
  8
7
  10
-2.280
  20
-0.155
  0
VERTEX
  8
7
  10
-2.268
  20
-0.147
  0
VERTEX
  8
7
  10
-2.253
  20
-0.144
  0
SEQEND
  0
POLYLINE
  8
7
  6
CONTINUOUS
 66
  1
  0
VERTEX
  8
7
  10
-2.253
  20
-0.144
  0
VERTEX
  8
7
  10
-2.239
  20
-0.147
  0
VERTEX
  8
7
  10
-2.227
  20
-0.155
  0
VERTEX
  8
7
  10
-2.219
  20
-0.167
  0
VERTEX
  8
7
  10
-2.216
  20
-0.182
  0
VERTEX
  8
7
  10
-2.219
  20
-0.197
  0
VERTEX
  8
7
  10
-2.227
  20
-0.209
  0
VERTEX
  8
7
  10
-2.239
  20
-0.217
  0
VERTEX
  8
7
  10
-2.253
  20
-0.220
  0
VERTEX
  8
7
  10
-2.268
  20
-0.217
  0
VERTEX
  8
7
  10
-2.280
  20
-0.209
  0
VERTEX
  8
7
  10
-2.288
  20
-0.197
  0
VERTEX
  8
7
  10
-2.291
  20
-0.182
  0
VERTEX
  8
7
  10
-2.288
  20
-0.167
  0
VERTEX
  8
7
  10
-2.280
  20
-0.155
  0
VERTEX
  8
7
  10
-2.268
  20
-0.147
  0
VERTEX
  8
7
  10
-2.253
  20
-0.144
  0
SEQEND
  0
POLYLINE
  8
7
  6
CONTINUOUS
 66
  1
  0
VERTEX
  8
7
  10
-2.253
  20
-0.144
  0
VERTEX
  8
7
  10
-2.239
  20
-0.147
  0
VERTEX
  8
7
  10
-2.227
  20
-0.155
  0
VERTEX
  8
7
  10
-2.219
  20
-0.167
  0
VERTEX
  8
7
  10
-2.216
  20
-0.182
  0
VERTEX
  8
7
  10
-2.219
  20
-0.197
  0
VERTEX
  8
7
  10
-2.227
  20
-0.209
  0
VERTEX
  8
7
  10
-2.239
  20
-0.217
  0
VERTEX
  8
7
  10
-2.253
  20
-0.220
  0
VERTEX
  8
7
  10
-2.268
  20
-0.217
  0
VERTEX
  8
7
  10
-2.280
  20
-0.209
  0
VERTEX
  8
7
  10
-2.288
  20
-0.197
  0
VERTEX
  8
7
  10
-2.291
  20
-0.182
  0
VERTEX
  8
7
  10
-2.288
  20
-0.167
  0
VERTEX
  8
7
  10
-2.280
  20
-0.155
  0
VERTEX
  8
7
  10
-2.268
  20
-0.147
  0
VERTEX
  8
7
  10
-2.253
  20
-0.144
  0
SEQEND
  0
ENDSEC
  0
EOF
