  0
SECTION
  2
HEADER
  9
$ACADVER
  1
AC1003
  9
$INSBASE
 10
0.0
 20
0.0
  9
$EXTMIN
 10
-6
 20
-6
  9
$EXTMAX
 10
6
 20
6
  9
$LIMMIN
 10
0.0
 20
0.0
  9
$LIMMAX
 10
12.0
 20
9.0
  9
$VIEWCTR
 10
7.378144
 20
4.5
  9
$VIEWSIZE
 40
9.0
  9
$SNAPMODE
 70
     0
  9
$SNAPUNIT
 10
1.0
 20
1.0
  9
$SNAPBASE
 10
0.0
 20
0.0
  9
$SNAPANG
 50
0.0
  9
$SNAPSTYLE
 70
     0
  9
$SNAPISOPAIR
 70
     0
  9
$GRIDMODE
 70
     0
  9
$GRIDUNIT
 10
0.0
 20
0.0
  9
$ORTHOMODE
 70
     0
  9
$REGENMODE
 70
     1
  9
$FILLMODE
 70
     1
  9
$QTEXTMODE
 70
     0
  9
$DRAGMODE
 70
     2
  9
$LTSCALE
 40
1.0
  9
$OSMODE
 70
     0
  9
$ATTMODE
 70
     1
  9
$TEXTSIZE
 40
0.2
  9
$TRACEWID
 40
0.05
  9
$TEXTSTYLE
  7
STANDARD
  9
$CLAYER
  8
0
  9
$CELTYPE
  6
BYLAYER
  9
$CECOLOR
 62
   256
  9
$DIMSCALE
 40
1.0
  9
$DIMASZ
 40
0.18
  9
$DIMEXO
 40
0.0625
  9
$DIMDLI
 40
0.38
  9
$DIMRND
 40
0.0
  9
$DIMDLE
 40
0.0
  9
$DIMEXE
 40
0.18
  9
$DIMTP
 40
0.0
  9
$DIMTM
 40
0.0
  9
$DIMTXT
 40
0.18
  9
$DIMCEN
 40
0.09
  9
$DIMTSZ
 40
0.0
  9
$DIMTOL
 70
     0
  9
$DIMLIM
 70
     0
  9
$DIMTIH
 70
     1
  9
$DIMTOH
 70
     1
  9
$DIMSE1
 70
     0
  9
$DIMSE2
 70
     0
  9
$DIMTAD
 70
     0
  9
$DIMZIN
 70
     0
  9
$DIMBLK
  1

  9
$DIMASO
 70
     1
  9
$DIMSHO
 70
     0
  9
$DIMPOST
  1

  9
$DIMAPOST
  1

  9
$DIMALT
 70
     0
  9
$DIMALTD
 70
     2
  9
$DIMALTF
 40
25.4
  9
$DIMLFAC
 40
1.0
  9
$LUNITS
 70
     2
  9
$LUPREC
 70
     4
  9
$AXISMODE
 70
     0
  9
$AXISUNIT
 10
0.0
 20
0.0
  9
$SKETCHINC
 40
0.1
  9
$FILLETRAD
 40
0.0
  9
$AUNITS
 70
     0
  9
$AUPREC
 70
     0
  9
$MENU
  1
ACAD
  9
$ELEVATION
 40
0.0
  9
$THICKNESS
 40
0.0
  9
$VIEWDIR
 10
0.0
 20
0.0
 30
1.0
  9
$LIMCHECK
 70
     0
  9
$BLIPMODE
 70
     1
  9
$CHAMFERA
 40
0.0
  9
$CHAMFERB
 40
0.0
  9
$FASTZOOM
 70
     1
  9
$SKPOLY
 70
     0
  9
$TDCREATE
 40
2447732.6512363921
  9
$TDUPDATE
 40
2447732.6512363921
  9
$TDINDWG
 40
0.0000000000
  9
$TDUSRTIMER
 40
0.0000000000
  9
$USRTIMER
 70
     1
  9
$ANGBASE
 50
0.0
  9
$ANGDIR
 70
     0
  9
$PDMODE
 70
     0
  9
$PDSIZE
 40
0.0
  9
$PLINEWID
 40
0.0
  9
$COORDS
 70
     0
  9
$USERI1
 70
     0
  9
$USERI2
 70
     0
  9
$USERI3
 70
     0
  9
$USERI4
 70
     0
  9
$USERI5
 70
     0
  9
$USERR1
 40
0.0
  9
$USERR2
 40
0.0
  9
$USERR3
 40
0.0
  9
$USERR4
 40
0.0
  9
$USERR5
 40
0.0
  0
ENDSEC
  0
SECTION
  2
TABLES
  0
TABLE
  2
LTYPE
  70
     2
  0
LTYPE
  2
CONTINUOUS
 70
    64
  3
Solid line
 72
    65
 73
     0
 40
0.0
  0
ENDTAB
  0
TABLE
  2
LAYER
 70
     9
  0
LAYER
  2
0
 70
     0
 62
     7
  6
CONTINUOUS
  0
LAYER
  2
1
 70
     0
 62
     1
  6
CONTINUOUS
  0
LAYER
  2
2
 70
     0
 62
     2
  6
CONTINUOUS
  0
LAYER
  2
3
 70
     0
 62
     3
  6
CONTINUOUS
  0
LAYER
  2
4
 70
     0
 62
     4
  6
CONTINUOUS
  0
LAYER
  2
5
 70
     0
 62
     5
  6
CONTINUOUS
  0
LAYER
  2
6
 70
     0
 62
     6
  6
CONTINUOUS
  0
LAYER
  2
7
 70
     0
 62
     7
  6
CONTINUOUS
  0
LAYER
  2
8
 70
     0
 62
     7
  6
CONTINUOUS
  0
ENDTAB
  0
TABLE
  2
STYLE
 70
     5
  0
STYLE
  2
STANDARD
 70
     0
 40
0.0
 41
1.0
 50
0.0
 71
     0
 42
0.2
  3
TXT
  4

  0
STYLE
  2
GREEK
 70
     0
 40
0.0
 41
1.0
 50
0.0
 71
     0
 42
0.2
  3
GREEKC
  4

  0
STYLE
  2
ITALICC
 70
     0
 40
0.0
 41
1.0
 50
0.0
 71
     0
 42
0.2
  3
ITALICC
  4

  0
STYLE
  2
MONOTXT
 70
     0
 40
0.0
 41
1.0
 50
0.0
 71
     0
 42
0.2
  3
MONOTXT
  4

  0
STYLE
  2
GOTHICE
 70
     0
 40
0.0
 41
1.0
 50
0.0
 71
     0
 42
0.2
  3
GOTHICE
  4

  0
ENDTAB
  0
TABLE
  2
VIEW
 70
     0
  0
ENDTAB
  0
ENDSEC
  0
SECTION
  2
BLOCKS
  0
ENDSEC
  0
SECTION
  2
ENTITIES
  0
POLYLINE
  8
7
  6
CONTINUOUS
 66
  1
  0
VERTEX
  8
7
  10
-0.003
  20
3.720
  0
VERTEX
  8
7
  10
-0.027
  20
3.725
  0
VERTEX
  8
7
  10
-0.047
  20
3.739
  0
VERTEX
  8
7
  10
-0.061
  20
3.758
  0
VERTEX
  8
7
  10
-0.065
  20
3.783
  0
VERTEX
  8
7
  10
-0.061
  20
3.807
  0
VERTEX
  8
7
  10
-0.047
  20
3.827
  0
VERTEX
  8
7
  10
-0.027
  20
3.840
  0
VERTEX
  8
7
  10
-0.003
  20
3.845
  0
VERTEX
  8
7
  10
0.020
  20
3.840
  0
VERTEX
  8
7
  10
0.040
  20
3.827
  0
VERTEX
  8
7
  10
0.054
  20
3.807
  0
VERTEX
  8
7
  10
0.059
  20
3.783
  0
VERTEX
  8
7
  10
0.054
  20
3.758
  0
VERTEX
  8
7
  10
0.040
  20
3.739
  0
VERTEX
  8
7
  10
0.020
  20
3.725
  0
VERTEX
  8
7
  10
-0.003
  20
3.720
  0
SEQEND
  0
POLYLINE
  8
7
  6
CONTINUOUS
 66
  1
  0
VERTEX
  8
7
  10
-2.903
  20
4.120
  0
VERTEX
  8
7
  10
-2.927
  20
4.125
  0
VERTEX
  8
7
  10
-2.947
  20
4.139
  0
VERTEX
  8
7
  10
-2.961
  20
4.158
  0
VERTEX
  8
7
  10
-2.965
  20
4.183
  0
VERTEX
  8
7
  10
-2.961
  20
4.207
  0
VERTEX
  8
7
  10
-2.947
  20
4.227
  0
VERTEX
  8
7
  10
-2.927
  20
4.240
  0
VERTEX
  8
7
  10
-2.903
  20
4.245
  0
VERTEX
  8
7
  10
-2.879
  20
4.240
  0
VERTEX
  8
7
  10
-2.859
  20
4.227
  0
VERTEX
  8
7
  10
-2.845
  20
4.207
  0
VERTEX
  8
7
  10
-2.840
  20
4.183
  0
VERTEX
  8
7
  10
-2.845
  20
4.158
  0
VERTEX
  8
7
  10
-2.859
  20
4.139
  0
VERTEX
  8
7
  10
-2.879
  20
4.125
  0
VERTEX
  8
7
  10
-2.903
  20
4.120
  0
SEQEND
  0
POLYLINE
  8
7
  6
CONTINUOUS
 66
  1
  0
VERTEX
  8
7
  10
-2.253
  20
-0.144
  0
VERTEX
  8
7
  10
-2.239
  20
-0.147
  0
VERTEX
  8
7
  10
-2.227
  20
-0.155
  0
VERTEX
  8
7
  10
-2.219
  20
-0.167
  0
VERTEX
  8
7
  10
-2.216
  20
-0.182
  0
VERTEX
  8
7
  10
-2.219
  20
-0.197
  0
VERTEX
  8
7
  10
-2.227
  20
-0.209
  0
VERTEX
  8
7
  10
-2.239
  20
-0.217
  0
VERTEX
  8
7
  10
-2.253
  20
-0.220
  0
VERTEX
  8
7
  10
-2.268
  20
-0.217
  0
VERTEX
  8
7
  10
-2.280
  20
-0.209
  0
VERTEX
  8
7
  10
-2.288
  20
-0.197
  0
VERTEX
  8
7
  10
-2.291
  20
-0.182
  0
VERTEX
  8
7
  10
-2.288
  20
-0.167
  0
VERTEX
  8
7
  10
-2.280
  20
-0.155
  0
VERTEX
  8
7
  10
-2.268
  20
-0.147
  0
VERTEX
  8
7
  10
-2.253
  20
-0.144
  0
SEQEND
  0
POLYLINE
  8
7
  6
CONTINUOUS
 66
  1
  0
VERTEX
  8
7
  10
2.245
  20
4.002
  0
VERTEX
  8
7
  10
2.260
  20
3.999
  0
VERTEX
  8
7
  10
2.272
  20
3.991
  0
VERTEX
  8
7
  10
2.280
  20
3.979
  0
VERTEX
  8
7
  10
2.283
  20
3.964
  0
VERTEX
  8
7
  10
2.280
  20
3.950
  0
VERTEX
  8
7
  10
2.272
  20
3.938
  0
VERTEX
  8
7
  10
2.260
  20
3.930
  0
VERTEX
  8
7
  10
2.245
  20
3.927
  0
VERTEX
  8
7
  10
2.231
  20
3.930
  0
VERTEX
  8
7
  10
2.219
  20
3.938
  0
VERTEX
  8
7
  10
2.210
  20
3.950
  0
VERTEX
  8
7
  10
2.207
  20
3.964
  0
VERTEX
  8
7
  10
2.210
  20
3.979
  0
VERTEX
  8
7
  10
2.219
  20
3.991
  0
VERTEX
  8
7
  10
2.231
  20
3.999
  0
VERTEX
  8
7
  10
2.245
  20
4.002
  0
SEQEND
  0
POLYLINE
  8
7
  6
CONTINUOUS
 66
  1
  0
VERTEX
  8
7
  10
-2.253
  20
4.002
  0
VERTEX
  8
7
  10
-2.238
  20
3.999
  0
VERTEX
  8
7
  10
-2.226
  20
3.991
  0
VERTEX
  8
7
  10
-2.218
  20
3.979
  0
VERTEX
  8
7
  10
-2.215
  20
3.965
  0
VERTEX
  8
7
  10
-2.218
  20
3.950
  0
VERTEX
  8
7
  10
-2.226
  20
3.938
  0
VERTEX
  8
7
  10
-2.238
  20
3.930
  0
VERTEX
  8
7
  10
-2.253
  20
3.927
  0
VERTEX
  8
7
  10
-2.268
  20
3.930
  0
VERTEX
  8
7
  10
-2.280
  20
3.938
  0
VERTEX
  8
7
  10
-2.288
  20
3.950
  0
VERTEX
  8
7
  10
-2.291
  20
3.965
  0
VERTEX
  8
7
  10
-2.288
  20
3.979
  0
VERTEX
  8
7
  10
-2.280
  20
3.991
  0
VERTEX
  8
7
  10
-2.268
  20
3.999
  0
VERTEX
  8
7
  10
-2.253
  20
4.002
  0
SEQEND
  0
POLYLINE
  8
7
  6
CONTINUOUS
 66
  1
  0
VERTEX
  8
7
  10
-1.946
  20
3.528
  0
VERTEX
  8
7
  10
-1.926
  20
3.524
  0
VERTEX
  8
7
  10
-1.910
  20
3.513
  0
VERTEX
  8
7
  10
-1.900
  20
3.497
  0
VERTEX
  8
7
  10
-1.896
  20
3.478
  0
VERTEX
  8
7
  10
-1.900
  20
3.458
  0
VERTEX
  8
7
  10
-1.910
  20
3.442
  0
VERTEX
  8
7
  10
-1.926
  20
3.432
  0
VERTEX
  8
7
  10
-1.946
  20
3.428
  0
VERTEX
  8
7
  10
-1.965
  20
3.432
  0
VERTEX
  8
7
  10
-1.981
  20
3.442
  0
VERTEX
  8
7
  10
-1.992
  20
3.458
  0
VERTEX
  8
7
  10
-1.996
  20
3.478
  0
VERTEX
  8
7
  10
-1.992
  20
3.497
  0
VERTEX
  8
7
  10
-1.981
  20
3.513
  0
VERTEX
  8
7
  10
-1.965
  20
3.524
  0
VERTEX
  8
7
  10
-1.946
  20
3.528
  0
SEQEND
  0
POLYLINE
  8
7
  6
CONTINUOUS
 66
  1
  0
VERTEX
  8
7
  10
-1.954
  20
3.042
  0
VERTEX
  8
7
  10
-1.935
  20
3.038
  0
VERTEX
  8
7
  10
-1.919
  20
3.027
  0
VERTEX
  8
7
  10
-1.908
  20
3.011
  0
VERTEX
  8
7
  10
-1.904
  20
2.992
  0
VERTEX
  8
7
  10
-1.908
  20
2.973
  0
VERTEX
  8
7
  10
-1.919
  20
2.957
  0
VERTEX
  8
7
  10
-1.935
  20
2.946
  0
VERTEX
  8
7
  10
-1.954
  20
2.942
  0
VERTEX
  8
7
  10
-1.973
  20
2.946
  0
VERTEX
  8
7
  10
-1.989
  20
2.957
  0
VERTEX
  8
7
  10
-2.000
  20
2.973
  0
VERTEX
  8
7
  10
-2.004
  20
2.992
  0
VERTEX
  8
7
  10
-2.000
  20
3.011
  0
VERTEX
  8
7
  10
-1.989
  20
3.027
  0
VERTEX
  8
7
  10
-1.973
  20
3.038
  0
VERTEX
  8
7
  10
-1.954
  20
3.042
  0
SEQEND
  0
POLYLINE
  8
7
  6
CONTINUOUS
 66
  1
  0
VERTEX
  8
7
  10
-1.946
  20
2.528
  0
VERTEX
  8
7
  10
-1.926
  20
2.524
  0
VERTEX
  8
7
  10
-1.910
  20
2.513
  0
VERTEX
  8
7
  10
-1.900
  20
2.497
  0
VERTEX
  8
7
  10
-1.896
  20
2.478
  0
VERTEX
  8
7
  10
-1.900
  20
2.458
  0
VERTEX
  8
7
  10
-1.910
  20
2.442
  0
VERTEX
  8
7
  10
-1.926
  20
2.432
  0
VERTEX
  8
7
  10
-1.946
  20
2.428
  0
VERTEX
  8
7
  10
-1.965
  20
2.432
  0
VERTEX
  8
7
  10
-1.981
  20
2.442
  0
VERTEX
  8
7
  10
-1.992
  20
2.458
  0
VERTEX
  8
7
  10
-1.996
  20
2.478
  0
VERTEX
  8
7
  10
-1.992
  20
2.497
  0
VERTEX
  8
7
  10
-1.981
  20
2.513
  0
VERTEX
  8
7
  10
-1.965
  20
2.524
  0
VERTEX
  8
7
  10
-1.946
  20
2.528
  0
SEQEND
  0
POLYLINE
  8
7
  6
CONTINUOUS
 66
  1
  0
VERTEX
  8
7
  10
-1.954
  20
2.042
  0
VERTEX
  8
7
  10
-1.935
  20
2.038
  0
VERTEX
  8
7
  10
-1.919
  20
2.027
  0
VERTEX
  8
7
  10
-1.908
  20
2.011
  0
VERTEX
  8
7
  10
-1.904
  20
1.992
  0
VERTEX
  8
7
  10
-1.908
  20
1.973
  0
VERTEX
  8
7
  10
-1.919
  20
1.957
  0
VERTEX
  8
7
  10
-1.935
  20
1.946
  0
VERTEX
  8
7
  10
-1.954
  20
1.942
  0
VERTEX
  8
7
  10
-1.973
  20
1.946
  0
VERTEX
  8
7
  10
-1.989
  20
1.957
  0
VERTEX
  8
7
  10
-2.000
  20
1.973
  0
VERTEX
  8
7
  10
-2.004
  20
1.992
  0
VERTEX
  8
7
  10
-2.000
  20
2.011
  0
VERTEX
  8
7
  10
-1.989
  20
2.027
  0
VERTEX
  8
7
  10
-1.973
  20
2.038
  0
VERTEX
  8
7
  10
-1.954
  20
2.042
  0
SEQEND
  0
POLYLINE
  8
7
  6
CONTINUOUS
 66
  1
  0
VERTEX
  8
7
  10
-1.946
  20
1.528
  0
VERTEX
  8
7
  10
-1.926
  20
1.524
  0
VERTEX
  8
7
  10
-1.910
  20
1.513
  0
VERTEX
  8
7
  10
-1.900
  20
1.497
  0
VERTEX
  8
7
  10
-1.896
  20
1.478
  0
VERTEX
  8
7
  10
-1.900
  20
1.458
  0
VERTEX
  8
7
  10
-1.910
  20
1.442
  0
VERTEX
  8
7
  10
-1.926
  20
1.432
  0
VERTEX
  8
7
  10
-1.946
  20
1.428
  0
VERTEX
  8
7
  10
-1.965
  20
1.432
  0
VERTEX
  8
7
  10
-1.981
  20
1.442
  0
VERTEX
  8
7
  10
-1.992
  20
1.458
  0
VERTEX
  8
7
  10
-1.996
  20
1.478
  0
VERTEX
  8
7
  10
-1.992
  20
1.497
  0
VERTEX
  8
7
  10
-1.981
  20
1.513
  0
VERTEX
  8
7
  10
-1.965
  20
1.524
  0
VERTEX
  8
7
  10
-1.946
  20
1.528
  0
SEQEND
  0
POLYLINE
  8
7
  6
CONTINUOUS
 66
  1
  0
VERTEX
  8
7
  10
-1.954
  20
1.042
  0
VERTEX
  8
7
  10
-1.935
  20
1.038
  0
VERTEX
  8
7
  10
-1.919
  20
1.027
  0
VERTEX
  8
7
  10
-1.908
  20
1.011
  0
VERTEX
  8
7
  10
-1.904
  20
0.992
  0
VERTEX
  8
7
  10
-1.908
  20
0.973
  0
VERTEX
  8
7
  10
-1.919
  20
0.957
  0
VERTEX
  8
7
  10
-1.935
  20
0.946
  0
VERTEX
  8
7
  10
-1.954
  20
0.942
  0
VERTEX
  8
7
  10
-1.973
  20
0.946
  0
VERTEX
  8
7
  10
-1.989
  20
0.957
  0
VERTEX
  8
7
  10
-2.000
  20
0.973
  0
VERTEX
  8
7
  10
-2.004
  20
0.992
  0
VERTEX
  8
7
  10
-2.000
  20
1.011
  0
VERTEX
  8
7
  10
-1.989
  20
1.027
  0
VERTEX
  8
7
  10
-1.973
  20
1.038
  0
VERTEX
  8
7
  10
-1.954
  20
1.042
  0
SEQEND
  0
POLYLINE
  8
7
  6
CONTINUOUS
 66
  1
  0
VERTEX
  8
7
  10
-1.946
  20
0.528
  0
VERTEX
  8
7
  10
-1.926
  20
0.524
  0
VERTEX
  8
7
  10
-1.910
  20
0.513
  0
VERTEX
  8
7
  10
-1.900
  20
0.497
  0
VERTEX
  8
7
  10
-1.896
  20
0.478
  0
VERTEX
  8
7
  10
-1.900
  20
0.458
  0
VERTEX
  8
7
  10
-1.910
  20
0.442
  0
VERTEX
  8
7
  10
-1.926
  20
0.432
  0
VERTEX
  8
7
  10
-1.946
  20
0.428
  0
VERTEX
  8
7
  10
-1.965
  20
0.432
  0
VERTEX
  8
7
  10
-1.981
  20
0.442
  0
VERTEX
  8
7
  10
-1.992
  20
0.458
  0
VERTEX
  8
7
  10
-1.996
  20
0.478
  0
VERTEX
  8
7
  10
-1.992
  20
0.497
  0
VERTEX
  8
7
  10
-1.981
  20
0.513
  0
VERTEX
  8
7
  10
-1.965
  20
0.524
  0
VERTEX
  8
7
  10
-1.946
  20
0.528
  0
SEQEND
  0
POLYLINE
  8
7
  6
CONTINUOUS
 66
  1
  0
VERTEX
  8
7
  10
-1.046
  20
3.528
  0
VERTEX
  8
7
  10
-1.026
  20
3.524
  0
VERTEX
  8
7
  10
-1.010
  20
3.513
  0
VERTEX
  8
7
  10
-1.000
  20
3.497
  0
VERTEX
  8
7
  10
-0.996
  20
3.478
  0
VERTEX
  8
7
  10
-1.000
  20
3.458
  0
VERTEX
  8
7
  10
-1.010
  20
3.442
  0
VERTEX
  8
7
  10
-1.026
  20
3.432
  0
VERTEX
  8
7
  10
-1.046
  20
3.428
  0
VERTEX
  8
7
  10
-1.065
  20
3.432
  0
VERTEX
  8
7
  10
-1.081
  20
3.442
  0
VERTEX
  8
7
  10
-1.092
  20
3.458
  0
VERTEX
  8
7
  10
-1.096
  20
3.478
  0
VERTEX
  8
7
  10
-1.092
  20
3.497
  0
VERTEX
  8
7
  10
-1.081
  20
3.513
  0
VERTEX
  8
7
  10
-1.065
  20
3.524
  0
VERTEX
  8
7
  10
-1.046
  20
3.528
  0
SEQEND
  0
POLYLINE
  8
7
  6
CONTINUOUS
 66
  1
  0
VERTEX
  8
7
  10
-1.054
  20
3.042
  0
VERTEX
  8
7
  10
-1.035
  20
3.038
  0
VERTEX
  8
7
  10
-1.019
  20
3.027
  0
VERTEX
  8
7
  10
-1.008
  20
3.011
  0
VERTEX
  8
7
  10
-1.004
  20
2.992
  0
VERTEX
  8
7
  10
-1.008
  20
2.973
  0
VERTEX
  8
7
  10
-1.019
  20
2.957
  0
VERTEX
  8
7
  10
-1.035
  20
2.946
  0
VERTEX
  8
7
  10
-1.054
  20
2.942
  0
VERTEX
  8
7
  10
-1.073
  20
2.946
  0
VERTEX
  8
7
  10
-1.089
  20
2.957
  0
VERTEX
  8
7
  10
-1.100
  20
2.973
  0
VERTEX
  8
7
  10
-1.104
  20
2.992
  0
VERTEX
  8
7
  10
-1.100
  20
3.011
  0
VERTEX
  8
7
  10
-1.089
  20
3.027
  0
VERTEX
  8
7
  10
-1.073
  20
3.038
  0
VERTEX
  8
7
  10
-1.054
  20
3.042
  0
SEQEND
  0
POLYLINE
  8
7
  6
CONTINUOUS
 66
  1
  0
VERTEX
  8
7
  10
-1.046
  20
2.528
  0
VERTEX
  8
7
  10
-1.026
  20
2.524
  0
VERTEX
  8
7
  10
-1.010
  20
2.513
  0
VERTEX
  8
7
  10
-1.000
  20
2.497
  0
VERTEX
  8
7
  10
-0.996
  20
2.478
  0
VERTEX
  8
7
  10
-1.000
  20
2.458
  0
VERTEX
  8
7
  10
-1.010
  20
2.442
  0
VERTEX
  8
7
  10
-1.026
  20
2.432
  0
VERTEX
  8
7
  10
-1.046
  20
2.428
  0
VERTEX
  8
7
  10
-1.065
  20
2.432
  0
VERTEX
  8
7
  10
-1.081
  20
2.442
  0
VERTEX
  8
7
  10
-1.092
  20
2.458
  0
VERTEX
  8
7
  10
-1.096
  20
2.478
  0
VERTEX
  8
7
  10
-1.092
  20
2.497
  0
VERTEX
  8
7
  10
-1.081
  20
2.513
  0
VERTEX
  8
7
  10
-1.065
  20
2.524
  0
VERTEX
  8
7
  10
-1.046
  20
2.528
  0
SEQEND
  0
POLYLINE
  8
7
  6
CONTINUOUS
 66
  1
  0
VERTEX
  8
7
  10
-1.054
  20
2.042
  0
VERTEX
  8
7
  10
-1.035
  20
2.038
  0
VERTEX
  8
7
  10
-1.019
  20
2.027
  0
VERTEX
  8
7
  10
-1.008
  20
2.011
  0
VERTEX
  8
7
  10
-1.004
  20
1.992
  0
VERTEX
  8
7
  10
-1.008
  20
1.973
  0
VERTEX
  8
7
  10
-1.019
  20
1.957
  0
VERTEX
  8
7
  10
-1.035
  20
1.946
  0
VERTEX
  8
7
  10
-1.054
  20
1.942
  0
VERTEX
  8
7
  10
-1.073
  20
1.946
  0
VERTEX
  8
7
  10
-1.089
  20
1.957
  0
VERTEX
  8
7
  10
-1.100
  20
1.973
  0
VERTEX
  8
7
  10
-1.104
  20
1.992
  0
VERTEX
  8
7
  10
-1.100
  20
2.011
  0
VERTEX
  8
7
  10
-1.089
  20
2.027
  0
VERTEX
  8
7
  10
-1.073
  20
2.038
  0
VERTEX
  8
7
  10
-1.054
  20
2.042
  0
SEQEND
  0
POLYLINE
  8
7
  6
CONTINUOUS
 66
  1
  0
VERTEX
  8
7
  10
-1.046
  20
1.528
  0
VERTEX
  8
7
  10
-1.026
  20
1.524
  0
VERTEX
  8
7
  10
-1.010
  20
1.513
  0
VERTEX
  8
7
  10
-1.000
  20
1.497
  0
VERTEX
  8
7
  10
-0.996
  20
1.478
  0
VERTEX
  8
7
  10
-1.000
  20
1.458
  0
VERTEX
  8
7
  10
-1.010
  20
1.442
  0
VERTEX
  8
7
  10
-1.026
  20
1.432
  0
VERTEX
  8
7
  10
-1.046
  20
1.428
  0
VERTEX
  8
7
  10
-1.065
  20
1.432
  0
VERTEX
  8
7
  10
-1.081
  20
1.442
  0
VERTEX
  8
7
  10
-1.092
  20
1.458
  0
VERTEX
  8
7
  10
-1.096
  20
1.478
  0
VERTEX
  8
7
  10
-1.092
  20
1.497
  0
VERTEX
  8
7
  10
-1.081
  20
1.513
  0
VERTEX
  8
7
  10
-1.065
  20
1.524
  0
VERTEX
  8
7
  10
-1.046
  20
1.528
  0
SEQEND
  0
POLYLINE
  8
7
  6
CONTINUOUS
 66
  1
  0
VERTEX
  8
7
  10
-1.054
  20
1.042
  0
VERTEX
  8
7
  10
-1.035
  20
1.038
  0
VERTEX
  8
7
  10
-1.019
  20
1.027
  0
VERTEX
  8
7
  10
-1.008
  20
1.011
  0
VERTEX
  8
7
  10
-1.004
  20
0.992
  0
VERTEX
  8
7
  10
-1.008
  20
0.973
  0
VERTEX
  8
7
  10
-1.019
  20
0.957
  0
VERTEX
  8
7
  10
-1.035
  20
0.946
  0
VERTEX
  8
7
  10
-1.054
  20
0.942
  0
VERTEX
  8
7
  10
-1.073
  20
0.946
  0
VERTEX
  8
7
  10
-1.089
  20
0.957
  0
VERTEX
  8
7
  10
-1.100
  20
0.973
  0
VERTEX
  8
7
  10
-1.104
  20
0.992
  0
VERTEX
  8
7
  10
-1.100
  20
1.011
  0
VERTEX
  8
7
  10
-1.089
  20
1.027
  0
VERTEX
  8
7
  10
-1.073
  20
1.038
  0
VERTEX
  8
7
  10
-1.054
  20
1.042
  0
SEQEND
  0
POLYLINE
  8
7
  6
CONTINUOUS
 66
  1
  0
VERTEX
  8
7
  10
-1.046
  20
0.528
  0
VERTEX
  8
7
  10
-1.026
  20
0.524
  0
VERTEX
  8
7
  10
-1.010
  20
0.513
  0
VERTEX
  8
7
  10
-1.000
  20
0.497
  0
VERTEX
  8
7
  10
-0.996
  20
0.478
  0
VERTEX
  8
7
  10
-1.000
  20
0.458
  0
VERTEX
  8
7
  10
-1.010
  20
0.442
  0
VERTEX
  8
7
  10
-1.026
  20
0.432
  0
VERTEX
  8
7
  10
-1.046
  20
0.428
  0
VERTEX
  8
7
  10
-1.065
  20
0.432
  0
VERTEX
  8
7
  10
-1.081
  20
0.442
  0
VERTEX
  8
7
  10
-1.092
  20
0.458
  0
VERTEX
  8
7
  10
-1.096
  20
0.478
  0
VERTEX
  8
7
  10
-1.092
  20
0.497
  0
VERTEX
  8
7
  10
-1.081
  20
0.513
  0
VERTEX
  8
7
  10
-1.065
  20
0.524
  0
VERTEX
  8
7
  10
-1.046
  20
0.528
  0
SEQEND
  0
POLYLINE
  8
7
  6
CONTINUOUS
 66
  1
  0
VERTEX
  8
7
  10
-0.354
  20
3.836
  0
VERTEX
  8
7
  10
-0.335
  20
3.832
  0
VERTEX
  8
7
  10
-0.319
  20
3.821
  0
VERTEX
  8
7
  10
-0.308
  20
3.805
  0
VERTEX
  8
7
  10
-0.304
  20
3.786
  0
VERTEX
  8
7
  10
-0.308
  20
3.767
  0
VERTEX
  8
7
  10
-0.319
  20
3.751
  0
VERTEX
  8
7
  10
-0.335
  20
3.740
  0
VERTEX
  8
7
  10
-0.354
  20
3.736
  0
VERTEX
  8
7
  10
-0.374
  20
3.740
  0
VERTEX
  8
7
  10
-0.390
  20
3.751
  0
VERTEX
  8
7
  10
-0.400
  20
3.767
  0
VERTEX
  8
7
  10
-0.404
  20
3.786
  0
VERTEX
  8
7
  10
-0.400
  20
3.805
  0
VERTEX
  8
7
  10
-0.390
  20
3.821
  0
VERTEX
  8
7
  10
-0.374
  20
3.832
  0
VERTEX
  8
7
  10
-0.354
  20
3.836
  0
SEQEND
  0
POLYLINE
  8
7
  6
CONTINUOUS
 66
  1
  0
VERTEX
  8
7
  10
2.635
  20
3.833
  0
VERTEX
  8
7
  10
2.655
  20
3.829
  0
VERTEX
  8
7
  10
2.671
  20
3.818
  0
VERTEX
  8
7
  10
2.681
  20
3.802
  0
VERTEX
  8
7
  10
2.685
  20
3.783
  0
VERTEX
  8
7
  10
2.681
  20
3.764
  0
VERTEX
  8
7
  10
2.671
  20
3.748
  0
VERTEX
  8
7
  10
2.655
  20
3.737
  0
VERTEX
  8
7
  10
2.635
  20
3.733
  0
VERTEX
  8
7
  10
2.616
  20
3.737
  0
VERTEX
  8
7
  10
2.600
  20
3.748
  0
VERTEX
  8
7
  10
2.589
  20
3.764
  0
VERTEX
  8
7
  10
2.585
  20
3.783
  0
VERTEX
  8
7
  10
2.589
  20
3.802
  0
VERTEX
  8
7
  10
2.600
  20
3.818
  0
VERTEX
  8
7
  10
2.616
  20
3.829
  0
VERTEX
  8
7
  10
2.635
  20
3.833
  0
SEQEND
  0
POLYLINE
  8
7
  6
CONTINUOUS
 66
  1
  0
VERTEX
  8
7
  10
2.634
  20
0.251
  0
VERTEX
  8
7
  10
2.654
  20
0.247
  0
VERTEX
  8
7
  10
2.669
  20
0.237
  0
VERTEX
  8
7
  10
2.680
  20
0.221
  0
VERTEX
  8
7
  10
2.684
  20
0.201
  0
VERTEX
  8
7
  10
2.680
  20
0.182
  0
VERTEX
  8
7
  10
2.669
  20
0.166
  0
VERTEX
  8
7
  10
2.654
  20
0.155
  0
VERTEX
  8
7
  10
2.634
  20
0.151
  0
VERTEX
  8
7
  10
2.615
  20
0.155
  0
VERTEX
  8
7
  10
2.599
  20
0.166
  0
VERTEX
  8
7
  10
2.588
  20
0.182
  0
VERTEX
  8
7
  10
2.584
  20
0.201
  0
VERTEX
  8
7
  10
2.588
  20
0.221
  0
VERTEX
  8
7
  10
2.599
  20
0.237
  0
VERTEX
  8
7
  10
2.615
  20
0.247
  0
VERTEX
  8
7
  10
2.634
  20
0.251
  0
SEQEND
  0
POLYLINE
  8
7
  6
CONTINUOUS
 66
  1
  0
VERTEX
  8
7
  10
-0.355
  20
0.253
  0
VERTEX
  8
7
  10
-0.335
  20
0.249
  0
VERTEX
  8
7
  10
-0.320
  20
0.239
  0
VERTEX
  8
7
  10
-0.309
  20
0.223
  0
VERTEX
  8
7
  10
-0.305
  20
0.203
  0
VERTEX
  8
7
  10
-0.309
  20
0.184
  0
VERTEX
  8
7
  10
-0.320
  20
0.168
  0
VERTEX
  8
7
  10
-0.335
  20
0.157
  0
VERTEX
  8
7
  10
-0.355
  20
0.153
  0
VERTEX
  8
7
  10
-0.374
  20
0.157
  0
VERTEX
  8
7
  10
-0.390
  20
0.168
  0
VERTEX
  8
7
  10
-0.401
  20
0.184
  0
VERTEX
  8
7
  10
-0.405
  20
0.203
  0
VERTEX
  8
7
  10
-0.401
  20
0.223
  0
VERTEX
  8
7
  10
-0.390
  20
0.239
  0
VERTEX
  8
7
  10
-0.374
  20
0.249
  0
VERTEX
  8
7
  10
-0.355
  20
0.253
  0
SEQEND
  0
POLYLINE
  8
7
  6
CONTINUOUS
 66
  1
  0
VERTEX
  8
7
  10
-0.003
  20
3.720
  0
VERTEX
  8
7
  10
-0.027
  20
3.725
  0
VERTEX
  8
7
  10
-0.047
  20
3.739
  0
VERTEX
  8
7
  10
-0.061
  20
3.758
  0
VERTEX
  8
7
  10
-0.065
  20
3.783
  0
VERTEX
  8
7
  10
-0.061
  20
3.807
  0
VERTEX
  8
7
  10
-0.047
  20
3.827
  0
VERTEX
  8
7
  10
-0.027
  20
3.840
  0
VERTEX
  8
7
  10
-0.003
  20
3.845
  0
VERTEX
  8
7
  10
0.020
  20
3.840
  0
VERTEX
  8
7
  10
0.040
  20
3.827
  0
VERTEX
  8
7
  10
0.054
  20
3.807
  0
VERTEX
  8
7
  10
0.059
  20
3.783
  0
VERTEX
  8
7
  10
0.054
  20
3.758
  0
VERTEX
  8
7
  10
0.040
  20
3.739
  0
VERTEX
  8
7
  10
0.020
  20
3.725
  0
VERTEX
  8
7
  10
-0.003
  20
3.720
  0
SEQEND
  0
POLYLINE
  8
7
  6
CONTINUOUS
 66
  1
  0
VERTEX
  8
7
  10
-0.003
  20
0.140
  0
VERTEX
  8
7
  10
-0.027
  20
0.145
  0
VERTEX
  8
7
  10
-0.047
  20
0.158
  0
VERTEX
  8
7
  10
-0.061
  20
0.178
  0
VERTEX
  8
7
  10
-0.065
  20
0.202
  0
VERTEX
  8
7
  10
-0.061
  20
0.227
  0
VERTEX
  8
7
  10
-0.047
  20
0.246
  0
VERTEX
  8
7
  10
-0.027
  20
0.260
  0
VERTEX
  8
7
  10
-0.003
  20
0.265
  0
VERTEX
  8
7
  10
0.020
  20
0.260
  0
VERTEX
  8
7
  10
0.040
  20
0.246
  0
VERTEX
  8
7
  10
0.054
  20
0.227
  0
VERTEX
  8
7
  10
0.059
  20
0.202
  0
VERTEX
  8
7
  10
0.054
  20
0.178
  0
VERTEX
  8
7
  10
0.040
  20
0.158
  0
VERTEX
  8
7
  10
0.020
  20
0.145
  0
VERTEX
  8
7
  10
-0.003
  20
0.140
  0
SEQEND
  0
POLYLINE
  8
7
  6
CONTINUOUS
 66
  1
  0
VERTEX
  8
7
  10
2.243
  20
-0.145
  0
VERTEX
  8
7
  10
2.258
  20
-0.148
  0
VERTEX
  8
7
  10
2.270
  20
-0.156
  0
VERTEX
  8
7
  10
2.278
  20
-0.168
  0
VERTEX
  8
7
  10
2.281
  20
-0.182
  0
VERTEX
  8
7
  10
2.278
  20
-0.197
  0
VERTEX
  8
7
  10
2.270
  20
-0.209
  0
VERTEX
  8
7
  10
2.258
  20
-0.217
  0
VERTEX
  8
7
  10
2.243
  20
-0.220
  0
VERTEX
  8
7
  10
2.229
  20
-0.217
  0
VERTEX
  8
7
  10
2.217
  20
-0.209
  0
VERTEX
  8
7
  10
2.208
  20
-0.197
  0
VERTEX
  8
7
  10
2.206
  20
-0.182
  0
VERTEX
  8
7
  10
2.208
  20
-0.168
  0
VERTEX
  8
7
  10
2.217
  20
-0.156
  0
VERTEX
  8
7
  10
2.229
  20
-0.148
  0
VERTEX
  8
7
  10
2.243
  20
-0.145
  0
SEQEND
  0
POLYLINE
  8
7
  6
CONTINUOUS
 66
  1
  0
VERTEX
  8
7
  10
2.245
  20
-2.397
  0
VERTEX
  8
7
  10
2.260
  20
-2.400
  0
VERTEX
  8
7
  10
2.272
  20
-2.408
  0
VERTEX
  8
7
  10
2.280
  20
-2.420
  0
VERTEX
  8
7
  10
2.283
  20
-2.435
  0
VERTEX
  8
7
  10
2.280
  20
-2.449
  0
VERTEX
  8
7
  10
2.272
  20
-2.461
  0
VERTEX
  8
7
  10
2.260
  20
-2.469
  0
VERTEX
  8
7
  10
2.245
  20
-2.472
  0
VERTEX
  8
7
  10
2.231
  20
-2.469
  0
VERTEX
  8
7
  10
2.219
  20
-2.461
  0
VERTEX
  8
7
  10
2.210
  20
-2.449
  0
VERTEX
  8
7
  10
2.207
  20
-2.435
  0
VERTEX
  8
7
  10
2.210
  20
-2.420
  0
VERTEX
  8
7
  10
2.219
  20
-2.408
  0
VERTEX
  8
7
  10
2.231
  20
-2.400
  0
VERTEX
  8
7
  10
2.245
  20
-2.397
  0
SEQEND
  0
POLYLINE
  8
7
  6
CONTINUOUS
 66
  1
  0
VERTEX
  8
7
  10
-2.253
  20
-2.397
  0
VERTEX
  8
7
  10
-2.238
  20
-2.400
  0
VERTEX
  8
7
  10
-2.226
  20
-2.408
  0
VERTEX
  8
7
  10
-2.218
  20
-2.420
  0
VERTEX
  8
7
  10
-2.215
  20
-2.434
  0
VERTEX
  8
7
  10
-2.218
  20
-2.449
  0
VERTEX
  8
7
  10
-2.226
  20
-2.461
  0
VERTEX
  8
7
  10
-2.238
  20
-2.469
  0
VERTEX
  8
7
  10
-2.253
  20
-2.472
  0
VERTEX
  8
7
  10
-2.268
  20
-2.469
  0
VERTEX
  8
7
  10
-2.280
  20
-2.461
  0
VERTEX
  8
7
  10
-2.288
  20
-2.449
  0
VERTEX
  8
7
  10
-2.291
  20
-2.434
  0
VERTEX
  8
7
  10
-2.288
  20
-2.420
  0
VERTEX
  8
7
  10
-2.280
  20
-2.408
  0
VERTEX
  8
7
  10
-2.268
  20
-2.400
  0
VERTEX
  8
7
  10
-2.253
  20
-2.397
  0
SEQEND
  0
POLYLINE
  8
7
  6
CONTINUOUS
 66
  1
  0
VERTEX
  8
7
  10
-2.710
  20
4.170
  0
VERTEX
  8
7
  10
2.639
  20
4.170
  0
VERTEX
  8
7
  10
2.666
  20
4.167
  0
VERTEX
  8
7
  10
2.692
  20
4.159
  0
VERTEX
  8
7
  10
2.736
  20
4.126
  0
VERTEX
  8
7
  10
2.765
  20
4.079
  0
VERTEX
  8
7
  10
2.776
  20
4.020
  0
VERTEX
  8
7
  10
2.776
  20
-2.428
  0
VERTEX
  8
7
  10
2.765
  20
-2.487
  0
VERTEX
  8
7
  10
2.736
  20
-2.534
  0
VERTEX
  8
7
  10
2.692
  20
-2.567
  0
VERTEX
  8
7
  10
2.666
  20
-2.575
  0
VERTEX
  8
7
  10
2.639
  20
-2.579
  0
VERTEX
  8
7
  10
-2.710
  20
-2.579
  0
VERTEX
  8
7
  10
-2.738
  20
-2.575
  0
VERTEX
  8
7
  10
-2.764
  20
-2.567
  0
VERTEX
  8
7
  10
-2.807
  20
-2.534
  0
VERTEX
  8
7
  10
-2.837
  20
-2.487
  0
VERTEX
  8
7
  10
-2.848
  20
-2.428
  0
VERTEX
  8
7
  10
-2.848
  20
4.020
  0
VERTEX
  8
7
  10
-2.837
  20
4.079
  0
VERTEX
  8
7
  10
-2.807
  20
4.126
  0
VERTEX
  8
7
  10
-2.764
  20
4.159
  0
VERTEX
  8
7
  10
-2.738
  20
4.167
  0
VERTEX
  8
7
  10
-2.710
  20
4.170
  0
SEQEND
  0
POLYLINE
  8
7
  6
CONTINUOUS
 66
  1
  0
VERTEX
  8
7
  10
1.083
  20
3.795
  0
VERTEX
  8
7
  10
1.706
  20
3.795
  0
VERTEX
  8
7
  10
1.723
  20
3.792
  0
VERTEX
  8
7
  10
1.737
  20
3.784
  0
VERTEX
  8
7
  10
1.746
  20
3.773
  0
VERTEX
  8
7
  10
1.750
  20
3.758
  0
VERTEX
  8
7
  10
1.750
  20
2.383
  0
VERTEX
  8
7
  10
1.746
  20
2.368
  0
VERTEX
  8
7
  10
1.737
  20
2.356
  0
VERTEX
  8
7
  10
1.723
  20
2.348
  0
VERTEX
  8
7
  10
1.706
  20
2.345
  0
VERTEX
  8
7
  10
1.083
  20
2.345
  0
VERTEX
  8
7
  10
1.066
  20
2.348
  0
VERTEX
  8
7
  10
1.053
  20
2.356
  0
VERTEX
  8
7
  10
1.043
  20
2.368
  0
VERTEX
  8
7
  10
1.040
  20
2.383
  0
VERTEX
  8
7
  10
1.040
  20
3.758
  0
VERTEX
  8
7
  10
1.043
  20
3.773
  0
VERTEX
  8
7
  10
1.053
  20
3.784
  0
VERTEX
  8
7
  10
1.066
  20
3.792
  0
VERTEX
  8
7
  10
1.083
  20
3.795
  0
SEQEND
  0
POLYLINE
  8
7
  6
CONTINUOUS
 66
  1
  0
VERTEX
  8
7
  10
1.149
  20
3.902
  0
VERTEX
  8
7
  10
1.161
  20
3.899
  0
VERTEX
  8
7
  10
1.171
  20
3.893
  0
VERTEX
  8
7
  10
1.178
  20
3.883
  0
VERTEX
  8
7
  10
1.180
  20
3.871
  0
VERTEX
  8
7
  10
1.178
  20
3.858
  0
VERTEX
  8
7
  10
1.171
  20
3.849
  0
VERTEX
  8
7
  10
1.161
  20
3.842
  0
VERTEX
  8
7
  10
1.149
  20
3.839
  0
VERTEX
  8
7
  10
1.137
  20
3.842
  0
VERTEX
  8
7
  10
1.127
  20
3.849
  0
VERTEX
  8
7
  10
1.120
  20
3.858
  0
VERTEX
  8
7
  10
1.118
  20
3.871
  0
VERTEX
  8
7
  10
1.120
  20
3.883
  0
VERTEX
  8
7
  10
1.127
  20
3.893
  0
VERTEX
  8
7
  10
1.137
  20
3.899
  0
VERTEX
  8
7
  10
1.149
  20
3.902
  0
SEQEND
  0
POLYLINE
  8
7
  6
CONTINUOUS
 66
  1
  0
VERTEX
  8
7
  10
1.649
  20
3.902
  0
VERTEX
  8
7
  10
1.661
  20
3.899
  0
VERTEX
  8
7
  10
1.671
  20
3.893
  0
VERTEX
  8
7
  10
1.678
  20
3.883
  0
VERTEX
  8
7
  10
1.680
  20
3.871
  0
VERTEX
  8
7
  10
1.678
  20
3.858
  0
VERTEX
  8
7
  10
1.671
  20
3.849
  0
VERTEX
  8
7
  10
1.661
  20
3.842
  0
VERTEX
  8
7
  10
1.649
  20
3.839
  0
VERTEX
  8
7
  10
1.637
  20
3.842
  0
VERTEX
  8
7
  10
1.627
  20
3.849
  0
VERTEX
  8
7
  10
1.620
  20
3.858
  0
VERTEX
  8
7
  10
1.618
  20
3.871
  0
VERTEX
  8
7
  10
1.620
  20
3.883
  0
VERTEX
  8
7
  10
1.627
  20
3.893
  0
VERTEX
  8
7
  10
1.637
  20
3.899
  0
VERTEX
  8
7
  10
1.649
  20
3.902
  0
SEQEND
  0
POLYLINE
  8
7
  6
CONTINUOUS
 66
  1
  0
VERTEX
  8
7
  10
1.149
  20
2.315
  0
VERTEX
  8
7
  10
1.161
  20
2.313
  0
VERTEX
  8
7
  10
1.171
  20
2.306
  0
VERTEX
  8
7
  10
1.178
  20
2.296
  0
VERTEX
  8
7
  10
1.180
  20
2.284
  0
VERTEX
  8
7
  10
1.178
  20
2.272
  0
VERTEX
  8
7
  10
1.171
  20
2.262
  0
VERTEX
  8
7
  10
1.161
  20
2.255
  0
VERTEX
  8
7
  10
1.149
  20
2.253
  0
VERTEX
  8
7
  10
1.137
  20
2.255
  0
VERTEX
  8
7
  10
1.127
  20
2.262
  0
VERTEX
  8
7
  10
1.120
  20
2.272
  0
VERTEX
  8
7
  10
1.118
  20
2.284
  0
VERTEX
  8
7
  10
1.120
  20
2.296
  0
VERTEX
  8
7
  10
1.127
  20
2.306
  0
VERTEX
  8
7
  10
1.137
  20
2.313
  0
VERTEX
  8
7
  10
1.149
  20
2.315
  0
SEQEND
  0
POLYLINE
  8
7
  6
CONTINUOUS
 66
  1
  0
VERTEX
  8
7
  10
1.649
  20
2.315
  0
VERTEX
  8
7
  10
1.661
  20
2.313
  0
VERTEX
  8
7
  10
1.671
  20
2.306
  0
VERTEX
  8
7
  10
1.678
  20
2.296
  0
VERTEX
  8
7
  10
1.680
  20
2.284
  0
VERTEX
  8
7
  10
1.678
  20
2.272
  0
VERTEX
  8
7
  10
1.671
  20
2.262
  0
VERTEX
  8
7
  10
1.661
  20
2.255
  0
VERTEX
  8
7
  10
1.649
  20
2.253
  0
VERTEX
  8
7
  10
1.637
  20
2.255
  0
VERTEX
  8
7
  10
1.627
  20
2.262
  0
VERTEX
  8
7
  10
1.620
  20
2.272
  0
VERTEX
  8
7
  10
1.618
  20
2.284
  0
VERTEX
  8
7
  10
1.620
  20
2.296
  0
VERTEX
  8
7
  10
1.627
  20
2.306
  0
VERTEX
  8
7
  10
1.637
  20
2.313
  0
VERTEX
  8
7
  10
1.649
  20
2.315
  0
SEQEND
  0
POLYLINE
  8
5
  6
CONTINUOUS
 66
  1
  0
VERTEX
  8
5
  10
-2.356
  20
1.794
  0
VERTEX
  8
5
  10
-2.476
  20
1.794
  0
VERTEX
  8
5
  10
-2.476
  20
1.846
  0
VERTEX
  8
5
  10
-2.473
  20
1.871
  0
VERTEX
  8
5
  10
-2.461
  20
1.884
  0
VERTEX
  8
5
  10
-2.443
  20
1.889
  0
VERTEX
  8
5
  10
-2.422
  20
1.881
  0
VERTEX
  8
5
  10
-2.411
  20
1.855
  0
VERTEX
  8
5
  10
-2.405
  20
1.865
  0
VERTEX
  8
5
  10
-2.389
  20
1.878
  0
VERTEX
  8
5
  10
-2.356
  20
1.899
  0
VERTEX
  8
5
  10
-2.356
  20
1.879
  0
VERTEX
  8
5
  10
-2.381
  20
1.863
  0
VERTEX
  8
5
  10
-2.398
  20
1.852
  0
VERTEX
  8
5
  10
-2.406
  20
1.844
  0
VERTEX
  8
5
  10
-2.409
  20
1.836
  0
VERTEX
  8
5
  10
-2.409
  20
1.828
  0
VERTEX
  8
5
  10
-2.409
  20
1.809
  0
VERTEX
  8
5
  10
-2.356
  20
1.809
  0
VERTEX
  8
5
  10
-2.356
  20
1.794
  0
SEQEND
  0
POLYLINE
  8
5
  6
CONTINUOUS
 66
  1
  0
VERTEX
  8
5
  10
-2.423
  20
1.809
  0
VERTEX
  8
5
  10
-2.423
  20
1.843
  0
VERTEX
  8
5
  10
-2.425
  20
1.860
  0
VERTEX
  8
5
  10
-2.433
  20
1.869
  0
VERTEX
  8
5
  10
-2.443
  20
1.873
  0
VERTEX
  8
5
  10
-2.457
  20
1.866
  0
VERTEX
  8
5
  10
-2.463
  20
1.847
  0
VERTEX
  8
5
  10
-2.463
  20
1.809
  0
VERTEX
  8
5
  10
-2.423
  20
1.809
  0
SEQEND
  0
POLYLINE
  8
5
  6
CONTINUOUS
 66
  1
  0
VERTEX
  8
5
  10
-2.356
  20
1.914
  0
VERTEX
  8
5
  10
-2.476
  20
1.914
  0
VERTEX
  8
5
  10
-2.476
  20
2.000
  0
VERTEX
  8
5
  10
-2.462
  20
2.000
  0
VERTEX
  8
5
  10
-2.462
  20
1.930
  0
VERTEX
  8
5
  10
-2.425
  20
1.930
  0
VERTEX
  8
5
  10
-2.425
  20
1.996
  0
VERTEX
  8
5
  10
-2.411
  20
1.996
  0
VERTEX
  8
5
  10
-2.411
  20
1.930
  0
VERTEX
  8
5
  10
-2.371
  20
1.930
  0
VERTEX
  8
5
  10
-2.371
  20
2.003
  0
VERTEX
  8
5
  10
-2.356
  20
2.003
  0
VERTEX
  8
5
  10
-2.356
  20
1.914
  0
SEQEND
  0
POLYLINE
  8
5
  6
CONTINUOUS
 66
  1
  0
VERTEX
  8
5
  10
-2.356
  20
2.012
  0
VERTEX
  8
5
  10
-2.476
  20
2.058
  0
VERTEX
  8
5
  10
-2.476
  20
2.075
  0
VERTEX
  8
5
  10
-2.356
  20
2.123
  0
VERTEX
  8
5
  10
-2.356
  20
2.105
  0
VERTEX
  8
5
  10
-2.393
  20
2.091
  0
VERTEX
  8
5
  10
-2.393
  20
2.042
  0
VERTEX
  8
5
  10
-2.356
  20
2.028
  0
VERTEX
  8
5
  10
-2.356
  20
2.012
  0
SEQEND
  0
POLYLINE
  8
5
  6
CONTINUOUS
 66
  1
  0
VERTEX
  8
5
  10
-2.405
  20
2.046
  0
VERTEX
  8
5
  10
-2.405
  20
2.087
  0
VERTEX
  8
5
  10
-2.438
  20
2.074
  0
VERTEX
  8
5
  10
-2.463
  20
2.066
  0
VERTEX
  8
5
  10
-2.440
  20
2.059
  0
VERTEX
  8
5
  10
-2.405
  20
2.046
  0
SEQEND
  0
POLYLINE
  8
5
  6
CONTINUOUS
 66
  1
  0
VERTEX
  8
5
  10
-2.356
  20
2.136
  0
VERTEX
  8
5
  10
-2.476
  20
2.136
  0
VERTEX
  8
5
  10
-2.476
  20
2.189
  0
VERTEX
  8
5
  10
-2.473
  20
2.213
  0
VERTEX
  8
5
  10
-2.461
  20
2.227
  0
VERTEX
  8
5
  10
-2.443
  20
2.232
  0
VERTEX
  8
5
  10
-2.422
  20
2.223
  0
VERTEX
  8
5
  10
-2.411
  20
2.198
  0
VERTEX
  8
5
  10
-2.405
  20
2.208
  0
VERTEX
  8
5
  10
-2.389
  20
2.221
  0
VERTEX
  8
5
  10
-2.356
  20
2.241
  0
VERTEX
  8
5
  10
-2.356
  20
2.222
  0
VERTEX
  8
5
  10
-2.381
  20
2.206
  0
VERTEX
  8
5
  10
-2.398
  20
2.194
  0
VERTEX
  8
5
  10
-2.406
  20
2.186
  0
VERTEX
  8
5
  10
-2.409
  20
2.179
  0
VERTEX
  8
5
  10
-2.409
  20
2.170
  0
VERTEX
  8
5
  10
-2.409
  20
2.152
  0
VERTEX
  8
5
  10
-2.356
  20
2.152
  0
VERTEX
  8
5
  10
-2.356
  20
2.136
  0
SEQEND
  0
POLYLINE
  8
5
  6
CONTINUOUS
 66
  1
  0
VERTEX
  8
5
  10
-2.423
  20
2.152
  0
VERTEX
  8
5
  10
-2.423
  20
2.186
  0
VERTEX
  8
5
  10
-2.425
  20
2.203
  0
VERTEX
  8
5
  10
-2.433
  20
2.212
  0
VERTEX
  8
5
  10
-2.443
  20
2.215
  0
VERTEX
  8
5
  10
-2.457
  20
2.209
  0
VERTEX
  8
5
  10
-2.463
  20
2.190
  0
VERTEX
  8
5
  10
-2.463
  20
2.152
  0
VERTEX
  8
5
  10
-2.423
  20
2.152
  0
SEQEND
  0
POLYLINE
  8
5
  6
CONTINUOUS
 66
  1
  0
VERTEX
  8
5
  10
-2.356
  20
2.303
  0
VERTEX
  8
5
  10
-2.476
  20
2.303
  0
VERTEX
  8
5
  10
-2.476
  20
2.348
  0
VERTEX
  8
5
  10
-2.475
  20
2.366
  0
VERTEX
  8
5
  10
-2.469
  20
2.381
  0
VERTEX
  8
5
  10
-2.458
  20
2.390
  0
VERTEX
  8
5
  10
-2.441
  20
2.394
  0
VERTEX
  8
5
  10
-2.427
  20
2.391
  0
VERTEX
  8
5
  10
-2.416
  20
2.384
  0
VERTEX
  8
5
  10
-2.408
  20
2.370
  0
VERTEX
  8
5
  10
-2.405
  20
2.349
  0
VERTEX
  8
5
  10
-2.405
  20
2.318
  0
VERTEX
  8
5
  10
-2.356
  20
2.318
  0
VERTEX
  8
5
  10
-2.356
  20
2.303
  0
SEQEND
  0
POLYLINE
  8
5
  6
CONTINUOUS
 66
  1
  0
VERTEX
  8
5
  10
-2.419
  20
2.318
  0
VERTEX
  8
5
  10
-2.419
  20
2.349
  0
VERTEX
  8
5
  10
-2.425
  20
2.371
  0
VERTEX
  8
5
  10
-2.441
  20
2.377
  0
VERTEX
  8
5
  10
-2.454
  20
2.374
  0
VERTEX
  8
5
  10
-2.461
  20
2.364
  0
VERTEX
  8
5
  10
-2.462
  20
2.349
  0
VERTEX
  8
5
  10
-2.462
  20
2.318
  0
VERTEX
  8
5
  10
-2.419
  20
2.318
  0
SEQEND
  0
POLYLINE
  8
5
  6
CONTINUOUS
 66
  1
  0
VERTEX
  8
5
  10
-2.356
  20
2.413
  0
VERTEX
  8
5
  10
-2.476
  20
2.413
  0
VERTEX
  8
5
  10
-2.476
  20
2.429
  0
VERTEX
  8
5
  10
-2.371
  20
2.429
  0
VERTEX
  8
5
  10
-2.371
  20
2.488
  0
VERTEX
  8
5
  10
-2.356
  20
2.488
  0
VERTEX
  8
5
  10
-2.356
  20
2.413
  0
SEQEND
  0
POLYLINE
  8
5
  6
CONTINUOUS
 66
  1
  0
VERTEX
  8
5
  10
-2.356
  20
2.493
  0
VERTEX
  8
5
  10
-2.476
  20
2.539
  0
VERTEX
  8
5
  10
-2.476
  20
2.556
  0
VERTEX
  8
5
  10
-2.356
  20
2.605
  0
VERTEX
  8
5
  10
-2.356
  20
2.587
  0
VERTEX
  8
5
  10
-2.393
  20
2.573
  0
VERTEX
  8
5
  10
-2.393
  20
2.523
  0
VERTEX
  8
5
  10
-2.356
  20
2.510
  0
VERTEX
  8
5
  10
-2.356
  20
2.493
  0
SEQEND
  0
POLYLINE
  8
5
  6
CONTINUOUS
 66
  1
  0
VERTEX
  8
5
  10
-2.405
  20
2.528
  0
VERTEX
  8
5
  10
-2.405
  20
2.568
  0
VERTEX
  8
5
  10
-2.438
  20
2.556
  0
VERTEX
  8
5
  10
-2.463
  20
2.547
  0
VERTEX
  8
5
  10
-2.440
  20
2.541
  0
VERTEX
  8
5
  10
-2.405
  20
2.528
  0
SEQEND
  0
POLYLINE
  8
5
  6
CONTINUOUS
 66
  1
  0
VERTEX
  8
5
  10
-2.356
  20
2.636
  0
VERTEX
  8
5
  10
-2.462
  20
2.636
  0
VERTEX
  8
5
  10
-2.462
  20
2.596
  0
VERTEX
  8
5
  10
-2.476
  20
2.596
  0
VERTEX
  8
5
  10
-2.476
  20
2.691
  0
VERTEX
  8
5
  10
-2.462
  20
2.691
  0
VERTEX
  8
5
  10
-2.462
  20
2.651
  0
VERTEX
  8
5
  10
-2.356
  20
2.651
  0
VERTEX
  8
5
  10
-2.356
  20
2.636
  0
SEQEND
  0
POLYLINE
  8
5
  6
CONTINUOUS
 66
  1
  0
VERTEX
  8
5
  10
-2.356
  20
2.707
  0
VERTEX
  8
5
  10
-2.476
  20
2.707
  0
VERTEX
  8
5
  10
-2.476
  20
2.794
  0
VERTEX
  8
5
  10
-2.462
  20
2.794
  0
VERTEX
  8
5
  10
-2.462
  20
2.723
  0
VERTEX
  8
5
  10
-2.425
  20
2.723
  0
VERTEX
  8
5
  10
-2.425
  20
2.789
  0
VERTEX
  8
5
  10
-2.411
  20
2.789
  0
VERTEX
  8
5
  10
-2.411
  20
2.723
  0
VERTEX
  8
5
  10
-2.371
  20
2.723
  0
VERTEX
  8
5
  10
-2.371
  20
2.796
  0
VERTEX
  8
5
  10
-2.356
  20
2.796
  0
VERTEX
  8
5
  10
-2.356
  20
2.707
  0
SEQEND
  0
POLYLINE
  8
7
  6
CONTINUOUS
 66
  1
  0
VERTEX
  8
7
  10
-2.568
  20
-0.590
  0
VERTEX
  8
7
  10
-2.547
  20
-0.599
  0
VERTEX
  8
7
  10
-2.538
  20
-0.620
  0
VERTEX
  8
7
  10
-2.547
  20
-0.642
  0
VERTEX
  8
7
  10
-2.568
  20
-0.650
  0
VERTEX
  8
7
  10
-2.589
  20
-0.642
  0
VERTEX
  8
7
  10
-2.598
  20
-0.620
  0
VERTEX
  8
7
  10
-2.589
  20
-0.599
  0
VERTEX
  8
7
  10
-2.568
  20
-0.590
  0
SEQEND
  0
POLYLINE
  8
7
  6
CONTINUOUS
 66
  1
  0
VERTEX
  8
7
  10
-1.943
  20
-1.215
  0
VERTEX
  8
7
  10
-1.922
  20
-1.224
  0
VERTEX
  8
7
  10
-1.913
  20
-1.245
  0
VERTEX
  8
7
  10
-1.922
  20
-1.267
  0
VERTEX
  8
7
  10
-1.943
  20
-1.275
  0
VERTEX
  8
7
  10
-1.964
  20
-1.267
  0
VERTEX
  8
7
  10
-1.973
  20
-1.245
  0
VERTEX
  8
7
  10
-1.964
  20
-1.224
  0
VERTEX
  8
7
  10
-1.943
  20
-1.215
  0
SEQEND
  0
POLYLINE
  8
7
  6
CONTINUOUS
 66
  1
  0
VERTEX
  8
7
  10
1.931
  20
-0.590
  0
VERTEX
  8
7
  10
1.952
  20
-0.599
  0
VERTEX
  8
7
  10
1.961
  20
-0.620
  0
VERTEX
  8
7
  10
1.952
  20
-0.642
  0
VERTEX
  8
7
  10
1.931
  20
-0.650
  0
VERTEX
  8
7
  10
1.910
  20
-0.642
  0
VERTEX
  8
7
  10
1.901
  20
-0.620
  0
VERTEX
  8
7
  10
1.910
  20
-0.599
  0
VERTEX
  8
7
  10
1.931
  20
-0.590
  0
SEQEND
  0
POLYLINE
  8
7
  6
CONTINUOUS
 66
  1
  0
VERTEX
  8
7
  10
2.556
  20
-1.215
  0
VERTEX
  8
7
  10
2.577
  20
-1.224
  0
VERTEX
  8
7
  10
2.586
  20
-1.245
  0
VERTEX
  8
7
  10
2.577
  20
-1.267
  0
VERTEX
  8
7
  10
2.556
  20
-1.275
  0
VERTEX
  8
7
  10
2.535
  20
-1.267
  0
VERTEX
  8
7
  10
2.526
  20
-1.245
  0
VERTEX
  8
7
  10
2.535
  20
-1.224
  0
VERTEX
  8
7
  10
2.556
  20
-1.215
  0
SEQEND
  0
POLYLINE
  8
7
  6
CONTINUOUS
 66
  1
  0
VERTEX
  8
7
  10
-2.568
  20
-1.340
  0
VERTEX
  8
7
  10
-2.547
  20
-1.349
  0
VERTEX
  8
7
  10
-2.538
  20
-1.370
  0
VERTEX
  8
7
  10
-2.547
  20
-1.392
  0
VERTEX
  8
7
  10
-2.568
  20
-1.400
  0
VERTEX
  8
7
  10
-2.589
  20
-1.392
  0
VERTEX
  8
7
  10
-2.598
  20
-1.370
  0
VERTEX
  8
7
  10
-2.589
  20
-1.349
  0
VERTEX
  8
7
  10
-2.568
  20
-1.340
  0
SEQEND
  0
POLYLINE
  8
7
  6
CONTINUOUS
 66
  1
  0
VERTEX
  8
7
  10
-1.943
  20
-1.965
  0
VERTEX
  8
7
  10
-1.922
  20
-1.974
  0
VERTEX
  8
7
  10
-1.913
  20
-1.995
  0
VERTEX
  8
7
  10
-1.922
  20
-2.017
  0
VERTEX
  8
7
  10
-1.943
  20
-2.025
  0
VERTEX
  8
7
  10
-1.964
  20
-2.017
  0
VERTEX
  8
7
  10
-1.973
  20
-1.995
  0
VERTEX
  8
7
  10
-1.964
  20
-1.974
  0
VERTEX
  8
7
  10
-1.943
  20
-1.965
  0
SEQEND
  0
POLYLINE
  8
7
  6
CONTINUOUS
 66
  1
  0
VERTEX
  8
7
  10
1.931
  20
-1.340
  0
VERTEX
  8
7
  10
1.952
  20
-1.349
  0
VERTEX
  8
7
  10
1.961
  20
-1.370
  0
VERTEX
  8
7
  10
1.952
  20
-1.392
  0
VERTEX
  8
7
  10
1.931
  20
-1.400
  0
VERTEX
  8
7
  10
1.910
  20
-1.392
  0
VERTEX
  8
7
  10
1.901
  20
-1.370
  0
VERTEX
  8
7
  10
1.910
  20
-1.349
  0
VERTEX
  8
7
  10
1.931
  20
-1.340
  0
SEQEND
  0
POLYLINE
  8
7
  6
CONTINUOUS
 66
  1
  0
VERTEX
  8
7
  10
2.556
  20
-1.965
  0
VERTEX
  8
7
  10
2.577
  20
-1.974
  0
VERTEX
  8
7
  10
2.586
  20
-1.995
  0
VERTEX
  8
7
  10
2.577
  20
-2.017
  0
VERTEX
  8
7
  10
2.556
  20
-2.025
  0
VERTEX
  8
7
  10
2.535
  20
-2.017
  0
VERTEX
  8
7
  10
2.526
  20
-1.995
  0
VERTEX
  8
7
  10
2.535
  20
-1.974
  0
VERTEX
  8
7
  10
2.556
  20
-1.965
  0
SEQEND
  0
POLYLINE
  8
7
  6
CONTINUOUS
 66
  1
  0
VERTEX
  8
7
  10
-1.193
  20
-0.215
  0
VERTEX
  8
7
  10
-1.214
  20
-0.224
  0
VERTEX
  8
7
  10
-1.223
  20
-0.245
  0
VERTEX
  8
7
  10
-1.214
  20
-0.267
  0
VERTEX
  8
7
  10
-1.193
  20
-0.275
  0
VERTEX
  8
7
  10
-1.172
  20
-0.267
  0
VERTEX
  8
7
  10
-1.163
  20
-0.245
  0
VERTEX
  8
7
  10
-1.172
  20
-0.224
  0
VERTEX
  8
7
  10
-1.193
  20
-0.215
  0
SEQEND
  0
POLYLINE
  8
7
  6
CONTINUOUS
 66
  1
  0
VERTEX
  8
7
  10
-1.818
  20
-0.840
  0
VERTEX
  8
7
  10
-1.839
  20
-0.849
  0
VERTEX
  8
7
  10
-1.848
  20
-0.870
  0
VERTEX
  8
7
  10
-1.839
  20
-0.892
  0
VERTEX
  8
7
  10
-1.818
  20
-0.900
  0
VERTEX
  8
7
  10
-1.797
  20
-0.892
  0
VERTEX
  8
7
  10
-1.788
  20
-0.870
  0
VERTEX
  8
7
  10
-1.797
  20
-0.849
  0
VERTEX
  8
7
  10
-1.818
  20
-0.840
  0
SEQEND
  0
POLYLINE
  8
7
  6
CONTINUOUS
 66
  1
  0
VERTEX
  8
7
  10
-1.193
  20
-0.965
  0
VERTEX
  8
7
  10
-1.214
  20
-0.974
  0
VERTEX
  8
7
  10
-1.223
  20
-0.995
  0
VERTEX
  8
7
  10
-1.214
  20
-1.017
  0
VERTEX
  8
7
  10
-1.193
  20
-1.025
  0
VERTEX
  8
7
  10
-1.172
  20
-1.017
  0
VERTEX
  8
7
  10
-1.163
  20
-0.995
  0
VERTEX
  8
7
  10
-1.172
  20
-0.974
  0
VERTEX
  8
7
  10
-1.193
  20
-0.965
  0
SEQEND
  0
POLYLINE
  8
7
  6
CONTINUOUS
 66
  1
  0
VERTEX
  8
7
  10
-1.818
  20
-1.590
  0
VERTEX
  8
7
  10
-1.839
  20
-1.599
  0
VERTEX
  8
7
  10
-1.848
  20
-1.620
  0
VERTEX
  8
7
  10
-1.839
  20
-1.642
  0
VERTEX
  8
7
  10
-1.818
  20
-1.650
  0
VERTEX
  8
7
  10
-1.797
  20
-1.642
  0
VERTEX
  8
7
  10
-1.788
  20
-1.620
  0
VERTEX
  8
7
  10
-1.797
  20
-1.599
  0
VERTEX
  8
7
  10
-1.818
  20
-1.590
  0
SEQEND
  0
POLYLINE
  8
7
  6
CONTINUOUS
 66
  1
  0
VERTEX
  8
7
  10
-1.193
  20
-1.715
  0
VERTEX
  8
7
  10
-1.214
  20
-1.724
  0
VERTEX
  8
7
  10
-1.223
  20
-1.745
  0
VERTEX
  8
7
  10
-1.214
  20
-1.767
  0
VERTEX
  8
7
  10
-1.193
  20
-1.775
  0
VERTEX
  8
7
  10
-1.172
  20
-1.767
  0
VERTEX
  8
7
  10
-1.163
  20
-1.745
  0
VERTEX
  8
7
  10
-1.172
  20
-1.724
  0
VERTEX
  8
7
  10
-1.193
  20
-1.715
  0
SEQEND
  0
POLYLINE
  8
7
  6
CONTINUOUS
 66
  1
  0
VERTEX
  8
7
  10
-1.818
  20
-2.340
  0
VERTEX
  8
7
  10
-1.839
  20
-2.349
  0
VERTEX
  8
7
  10
-1.848
  20
-2.370
  0
VERTEX
  8
7
  10
-1.839
  20
-2.392
  0
VERTEX
  8
7
  10
-1.818
  20
-2.400
  0
VERTEX
  8
7
  10
-1.797
  20
-2.392
  0
VERTEX
  8
7
  10
-1.788
  20
-2.370
  0
VERTEX
  8
7
  10
-1.797
  20
-2.349
  0
VERTEX
  8
7
  10
-1.818
  20
-2.340
  0
SEQEND
  0
POLYLINE
  8
7
  6
CONTINUOUS
 66
  1
  0
VERTEX
  8
7
  10
-0.443
  20
-0.215
  0
VERTEX
  8
7
  10
-0.464
  20
-0.224
  0
VERTEX
  8
7
  10
-0.473
  20
-0.245
  0
VERTEX
  8
7
  10
-0.464
  20
-0.267
  0
VERTEX
  8
7
  10
-0.443
  20
-0.275
  0
VERTEX
  8
7
  10
-0.422
  20
-0.267
  0
VERTEX
  8
7
  10
-0.413
  20
-0.245
  0
VERTEX
  8
7
  10
-0.422
  20
-0.224
  0
VERTEX
  8
7
  10
-0.443
  20
-0.215
  0
SEQEND
  0
POLYLINE
  8
7
  6
CONTINUOUS
 66
  1
  0
VERTEX
  8
7
  10
-1.068
  20
-0.840
  0
VERTEX
  8
7
  10
-1.089
  20
-0.849
  0
VERTEX
  8
7
  10
-1.098
  20
-0.870
  0
VERTEX
  8
7
  10
-1.089
  20
-0.892
  0
VERTEX
  8
7
  10
-1.068
  20
-0.900
  0
VERTEX
  8
7
  10
-1.047
  20
-0.892
  0
VERTEX
  8
7
  10
-1.038
  20
-0.870
  0
VERTEX
  8
7
  10
-1.047
  20
-0.849
  0
VERTEX
  8
7
  10
-1.068
  20
-0.840
  0
SEQEND
  0
POLYLINE
  8
7
  6
CONTINUOUS
 66
  1
  0
VERTEX
  8
7
  10
-0.443
  20
-0.965
  0
VERTEX
  8
7
  10
-0.464
  20
-0.974
  0
VERTEX
  8
7
  10
-0.473
  20
-0.995
  0
VERTEX
  8
7
  10
-0.464
  20
-1.017
  0
VERTEX
  8
7
  10
-0.443
  20
-1.025
  0
VERTEX
  8
7
  10
-0.422
  20
-1.017
  0
VERTEX
  8
7
  10
-0.413
  20
-0.995
  0
VERTEX
  8
7
  10
-0.422
  20
-0.974
  0
VERTEX
  8
7
  10
-0.443
  20
-0.965
  0
SEQEND
  0
POLYLINE
  8
7
  6
CONTINUOUS
 66
  1
  0
VERTEX
  8
7
  10
-1.068
  20
-1.590
  0
VERTEX
  8
7
  10
-1.089
  20
-1.599
  0
VERTEX
  8
7
  10
-1.098
  20
-1.620
  0
VERTEX
  8
7
  10
-1.089
  20
-1.642
  0
VERTEX
  8
7
  10
-1.068
  20
-1.650
  0
VERTEX
  8
7
  10
-1.047
  20
-1.642
  0
VERTEX
  8
7
  10
-1.038
  20
-1.620
  0
VERTEX
  8
7
  10
-1.047
  20
-1.599
  0
VERTEX
  8
7
  10
-1.068
  20
-1.590
  0
SEQEND
  0
POLYLINE
  8
7
  6
CONTINUOUS
 66
  1
  0
VERTEX
  8
7
  10
-0.443
  20
-1.715
  0
VERTEX
  8
7
  10
-0.464
  20
-1.724
  0
VERTEX
  8
7
  10
-0.473
  20
-1.745
  0
VERTEX
  8
7
  10
-0.464
  20
-1.767
  0
VERTEX
  8
7
  10
-0.443
  20
-1.775
  0
VERTEX
  8
7
  10
-0.422
  20
-1.767
  0
VERTEX
  8
7
  10
-0.413
  20
-1.745
  0
VERTEX
  8
7
  10
-0.422
  20
-1.724
  0
VERTEX
  8
7
  10
-0.443
  20
-1.715
  0
SEQEND
  0
POLYLINE
  8
7
  6
CONTINUOUS
 66
  1
  0
VERTEX
  8
7
  10
-1.068
  20
-2.340
  0
VERTEX
  8
7
  10
-1.089
  20
-2.349
  0
VERTEX
  8
7
  10
-1.098
  20
-2.370
  0
VERTEX
  8
7
  10
-1.089
  20
-2.392
  0
VERTEX
  8
7
  10
-1.068
  20
-2.400
  0
VERTEX
  8
7
  10
-1.047
  20
-2.392
  0
VERTEX
  8
7
  10
-1.038
  20
-2.370
  0
VERTEX
  8
7
  10
-1.047
  20
-2.349
  0
VERTEX
  8
7
  10
-1.068
  20
-2.340
  0
SEQEND
  0
POLYLINE
  8
7
  6
CONTINUOUS
 66
  1
  0
VERTEX
  8
7
  10
0.306
  20
-0.215
  0
VERTEX
  8
7
  10
0.285
  20
-0.224
  0
VERTEX
  8
7
  10
0.276
  20
-0.245
  0
VERTEX
  8
7
  10
0.285
  20
-0.267
  0
VERTEX
  8
7
  10
0.306
  20
-0.275
  0
VERTEX
  8
7
  10
0.327
  20
-0.267
  0
VERTEX
  8
7
  10
0.336
  20
-0.245
  0
VERTEX
  8
7
  10
0.327
  20
-0.224
  0
VERTEX
  8
7
  10
0.306
  20
-0.215
  0
SEQEND
  0
POLYLINE
  8
7
  6
CONTINUOUS
 66
  1
  0
VERTEX
  8
7
  10
-0.318
  20
-0.840
  0
VERTEX
  8
7
  10
-0.339
  20
-0.849
  0
VERTEX
  8
7
  10
-0.348
  20
-0.870
  0
VERTEX
  8
7
  10
-0.339
  20
-0.892
  0
VERTEX
  8
7
  10
-0.318
  20
-0.900
  0
VERTEX
  8
7
  10
-0.297
  20
-0.892
  0
VERTEX
  8
7
  10
-0.288
  20
-0.870
  0
VERTEX
  8
7
  10
-0.297
  20
-0.849
  0
VERTEX
  8
7
  10
-0.318
  20
-0.840
  0
SEQEND
  0
POLYLINE
  8
7
  6
CONTINUOUS
 66
  1
  0
VERTEX
  8
7
  10
0.306
  20
-0.965
  0
VERTEX
  8
7
  10
0.285
  20
-0.974
  0
VERTEX
  8
7
  10
0.276
  20
-0.995
  0
VERTEX
  8
7
  10
0.285
  20
-1.017
  0
VERTEX
  8
7
  10
0.306
  20
-1.025
  0
VERTEX
  8
7
  10
0.327
  20
-1.017
  0
VERTEX
  8
7
  10
0.336
  20
-0.995
  0
VERTEX
  8
7
  10
0.327
  20
-0.974
  0
VERTEX
  8
7
  10
0.306
  20
-0.965
  0
SEQEND
  0
POLYLINE
  8
7
  6
CONTINUOUS
 66
  1
  0
VERTEX
  8
7
  10
-0.318
  20
-1.590
  0
VERTEX
  8
7
  10
-0.339
  20
-1.599
  0
VERTEX
  8
7
  10
-0.348
  20
-1.620
  0
VERTEX
  8
7
  10
-0.339
  20
-1.642
  0
VERTEX
  8
7
  10
-0.318
  20
-1.650
  0
VERTEX
  8
7
  10
-0.297
  20
-1.642
  0
VERTEX
  8
7
  10
-0.288
  20
-1.620
  0
VERTEX
  8
7
  10
-0.297
  20
-1.599
  0
VERTEX
  8
7
  10
-0.318
  20
-1.590
  0
SEQEND
  0
POLYLINE
  8
7
  6
CONTINUOUS
 66
  1
  0
VERTEX
  8
7
  10
0.306
  20
-1.715
  0
VERTEX
  8
7
  10
0.285
  20
-1.724
  0
VERTEX
  8
7
  10
0.276
  20
-1.745
  0
VERTEX
  8
7
  10
0.285
  20
-1.767
  0
VERTEX
  8
7
  10
0.306
  20
-1.775
  0
VERTEX
  8
7
  10
0.327
  20
-1.767
  0
VERTEX
  8
7
  10
0.336
  20
-1.745
  0
VERTEX
  8
7
  10
0.327
  20
-1.724
  0
VERTEX
  8
7
  10
0.306
  20
-1.715
  0
SEQEND
  0
POLYLINE
  8
7
  6
CONTINUOUS
 66
  1
  0
VERTEX
  8
7
  10
-0.318
  20
-2.340
  0
VERTEX
  8
7
  10
-0.339
  20
-2.349
  0
VERTEX
  8
7
  10
-0.348
  20
-2.370
  0
VERTEX
  8
7
  10
-0.339
  20
-2.392
  0
VERTEX
  8
7
  10
-0.318
  20
-2.400
  0
VERTEX
  8
7
  10
-0.297
  20
-2.392
  0
VERTEX
  8
7
  10
-0.288
  20
-2.370
  0
VERTEX
  8
7
  10
-0.297
  20
-2.349
  0
VERTEX
  8
7
  10
-0.318
  20
-2.340
  0
SEQEND
  0
POLYLINE
  8
7
  6
CONTINUOUS
 66
  1
  0
VERTEX
  8
7
  10
1.056
  20
-0.215
  0
VERTEX
  8
7
  10
1.035
  20
-0.224
  0
VERTEX
  8
7
  10
1.026
  20
-0.245
  0
VERTEX
  8
7
  10
1.035
  20
-0.267
  0
VERTEX
  8
7
  10
1.056
  20
-0.275
  0
VERTEX
  8
7
  10
1.077
  20
-0.267
  0
VERTEX
  8
7
  10
1.086
  20
-0.245
  0
VERTEX
  8
7
  10
1.077
  20
-0.224
  0
VERTEX
  8
7
  10
1.056
  20
-0.215
  0
SEQEND
  0
POLYLINE
  8
7
  6
CONTINUOUS
 66
  1
  0
VERTEX
  8
7
  10
0.431
  20
-0.840
  0
VERTEX
  8
7
  10
0.410
  20
-0.849
  0
VERTEX
  8
7
  10
0.401
  20
-0.870
  0
VERTEX
  8
7
  10
0.410
  20
-0.892
  0
VERTEX
  8
7
  10
0.431
  20
-0.900
  0
VERTEX
  8
7
  10
0.452
  20
-0.892
  0
VERTEX
  8
7
  10
0.461
  20
-0.870
  0
VERTEX
  8
7
  10
0.452
  20
-0.849
  0
VERTEX
  8
7
  10
0.431
  20
-0.840
  0
SEQEND
  0
POLYLINE
  8
7
  6
CONTINUOUS
 66
  1
  0
VERTEX
  8
7
  10
1.056
  20
-0.965
  0
VERTEX
  8
7
  10
1.035
  20
-0.974
  0
VERTEX
  8
7
  10
1.026
  20
-0.995
  0
VERTEX
  8
7
  10
1.035
  20
-1.017
  0
VERTEX
  8
7
  10
1.056
  20
-1.025
  0
VERTEX
  8
7
  10
1.077
  20
-1.017
  0
VERTEX
  8
7
  10
1.086
  20
-0.995
  0
VERTEX
  8
7
  10
1.077
  20
-0.974
  0
VERTEX
  8
7
  10
1.056
  20
-0.965
  0
SEQEND
  0
POLYLINE
  8
7
  6
CONTINUOUS
 66
  1
  0
VERTEX
  8
7
  10
0.431
  20
-1.590
  0
VERTEX
  8
7
  10
0.410
  20
-1.599
  0
VERTEX
  8
7
  10
0.401
  20
-1.620
  0
VERTEX
  8
7
  10
0.410
  20
-1.642
  0
VERTEX
  8
7
  10
0.431
  20
-1.650
  0
VERTEX
  8
7
  10
0.452
  20
-1.642
  0
VERTEX
  8
7
  10
0.461
  20
-1.620
  0
VERTEX
  8
7
  10
0.452
  20
-1.599
  0
VERTEX
  8
7
  10
0.431
  20
-1.590
  0
SEQEND
  0
POLYLINE
  8
7
  6
CONTINUOUS
 66
  1
  0
VERTEX
  8
7
  10
1.056
  20
-1.715
  0
VERTEX
  8
7
  10
1.035
  20
-1.724
  0
VERTEX
  8
7
  10
1.026
  20
-1.745
  0
VERTEX
  8
7
  10
1.035
  20
-1.767
  0
VERTEX
  8
7
  10
1.056
  20
-1.775
  0
VERTEX
  8
7
  10
1.077
  20
-1.767
  0
VERTEX
  8
7
  10
1.086
  20
-1.745
  0
VERTEX
  8
7
  10
1.077
  20
-1.724
  0
VERTEX
  8
7
  10
1.056
  20
-1.715
  0
SEQEND
  0
POLYLINE
  8
7
  6
CONTINUOUS
 66
  1
  0
VERTEX
  8
7
  10
0.431
  20
-2.340
  0
VERTEX
  8
7
  10
0.410
  20
-2.349
  0
VERTEX
  8
7
  10
0.401
  20
-2.370
  0
VERTEX
  8
7
  10
0.410
  20
-2.392
  0
VERTEX
  8
7
  10
0.431
  20
-2.400
  0
VERTEX
  8
7
  10
0.452
  20
-2.392
  0
VERTEX
  8
7
  10
0.461
  20
-2.370
  0
VERTEX
  8
7
  10
0.452
  20
-2.349
  0
VERTEX
  8
7
  10
0.431
  20
-2.340
  0
SEQEND
  0
POLYLINE
  8
7
  6
CONTINUOUS
 66
  1
  0
VERTEX
  8
7
  10
1.806
  20
-0.215
  0
VERTEX
  8
7
  10
1.785
  20
-0.224
  0
VERTEX
  8
7
  10
1.776
  20
-0.245
  0
VERTEX
  8
7
  10
1.785
  20
-0.267
  0
VERTEX
  8
7
  10
1.806
  20
-0.275
  0
VERTEX
  8
7
  10
1.827
  20
-0.267
  0
VERTEX
  8
7
  10
1.836
  20
-0.245
  0
VERTEX
  8
7
  10
1.827
  20
-0.224
  0
VERTEX
  8
7
  10
1.806
  20
-0.215
  0
SEQEND
  0
POLYLINE
  8
7
  6
CONTINUOUS
 66
  1
  0
VERTEX
  8
7
  10
1.181
  20
-0.840
  0
VERTEX
  8
7
  10
1.160
  20
-0.849
  0
VERTEX
  8
7
  10
1.151
  20
-0.870
  0
VERTEX
  8
7
  10
1.160
  20
-0.892
  0
VERTEX
  8
7
  10
1.181
  20
-0.900
  0
VERTEX
  8
7
  10
1.202
  20
-0.892
  0
VERTEX
  8
7
  10
1.211
  20
-0.870
  0
VERTEX
  8
7
  10
1.202
  20
-0.849
  0
VERTEX
  8
7
  10
1.181
  20
-0.840
  0
SEQEND
  0
POLYLINE
  8
7
  6
CONTINUOUS
 66
  1
  0
VERTEX
  8
7
  10
1.806
  20
-0.965
  0
VERTEX
  8
7
  10
1.785
  20
-0.974
  0
VERTEX
  8
7
  10
1.776
  20
-0.995
  0
VERTEX
  8
7
  10
1.785
  20
-1.017
  0
VERTEX
  8
7
  10
1.806
  20
-1.025
  0
VERTEX
  8
7
  10
1.827
  20
-1.017
  0
VERTEX
  8
7
  10
1.836
  20
-0.995
  0
VERTEX
  8
7
  10
1.827
  20
-0.974
  0
VERTEX
  8
7
  10
1.806
  20
-0.965
  0
SEQEND
  0
POLYLINE
  8
7
  6
CONTINUOUS
 66
  1
  0
VERTEX
  8
7
  10
1.181
  20
-1.590
  0
VERTEX
  8
7
  10
1.160
  20
-1.599
  0
VERTEX
  8
7
  10
1.151
  20
-1.620
  0
VERTEX
  8
7
  10
1.160
  20
-1.642
  0
VERTEX
  8
7
  10
1.181
  20
-1.650
  0
VERTEX
  8
7
  10
1.202
  20
-1.642
  0
VERTEX
  8
7
  10
1.211
  20
-1.620
  0
VERTEX
  8
7
  10
1.202
  20
-1.599
  0
VERTEX
  8
7
  10
1.181
  20
-1.590
  0
SEQEND
  0
POLYLINE
  8
7
  6
CONTINUOUS
 66
  1
  0
VERTEX
  8
7
  10
1.806
  20
-1.715
  0
VERTEX
  8
7
  10
1.785
  20
-1.724
  0
VERTEX
  8
7
  10
1.776
  20
-1.745
  0
VERTEX
  8
7
  10
1.785
  20
-1.767
  0
VERTEX
  8
7
  10
1.806
  20
-1.775
  0
VERTEX
  8
7
  10
1.827
  20
-1.767
  0
VERTEX
  8
7
  10
1.836
  20
-1.745
  0
VERTEX
  8
7
  10
1.827
  20
-1.724
  0
VERTEX
  8
7
  10
1.806
  20
-1.715
  0
SEQEND
  0
POLYLINE
  8
7
  6
CONTINUOUS
 66
  1
  0
VERTEX
  8
7
  10
1.181
  20
-2.340
  0
VERTEX
  8
7
  10
1.160
  20
-2.349
  0
VERTEX
  8
7
  10
1.151
  20
-2.370
  0
VERTEX
  8
7
  10
1.160
  20
-2.392
  0
VERTEX
  8
7
  10
1.181
  20
-2.400
  0
VERTEX
  8
7
  10
1.202
  20
-2.392
  0
VERTEX
  8
7
  10
1.211
  20
-2.370
  0
VERTEX
  8
7
  10
1.202
  20
-2.349
  0
VERTEX
  8
7
  10
1.181
  20
-2.340
  0
SEQEND
  0
ENDSEC
  0
EOF
